<svg xmlns="http://www.w3.org/2000/svg" viewBox="0 0 347.31 353.39"><title>fingerprint1</title><g id="Layer_2" data-name="Layer 2"><g id="bb441d3c-cf2a-489d-ae6b-061a3c0e4b94"><path d="M16.13,159.26A12.41,12.41,0,0,1,.57,151.12a12.28,12.28,0,0,1-.26-6.45C7.53,114.62,35,41.13,135.06,10.22,178.41-3.17,220-3.4,258.56,9.53c31.75,10.6,52.82,27.18,62.9,35.19a12.32,12.32,0,0,1,2,17.3l-.08.1a12.61,12.61,0,0,1-17.56,2C287.58,49.72,232.16,6,142.33,33.75,54.63,60.84,30.8,124.22,24.62,150.15a12.21,12.21,0,0,1-8.49,9.11Z" style="fill:#6c63ff"/><path d="M288.87,329.48a12.43,12.43,0,0,1-3.07.58c-78.18,4.21-127.91-60.74-130-63.45l-.38-.62c-1.24-1.93-31.34-47.72-18.09-84.09,6.09-16.62,19.55-28.29,40.12-34.65,19.13-5.91,34.79-4.16,48.11,5.36,10.93,7.75,17.93,19.31,24.72,30.48,14.12,23.18,22.77,35,49.6,28.17,11.78-3,17.28-12.2,19.8-19.38,6.76-19.52.77-46.14-15.1-66.28C284.12,99.47,226.76,56.08,156,77.94c-30.23,9.34-55,27.74-71.53,53.07-13.72,21-21.7,47.14-21.87,71.49-.28,45.34,36.88,105,37.24,105.53A12.3,12.3,0,0,1,95.92,325h0a.41.41,0,0,0-.11.07,12.59,12.59,0,0,1-17.24-3.86c-1.68-2.73-41.35-66.33-41-118.73.44-56.8,35-124.59,111.15-148.13,35.22-10.88,72.23-9,107.06,5.23,27,11.14,52,29.57,68.49,50.62,21.1,26.87,28.53,62,18.93,89.49-6.4,18.3-19.66,30.93-37.28,35.44-45.91,11.68-63.9-17.73-77-39.18-13.47-22-20.92-32.3-44.21-25.11-12.78,3.95-20.65,10.28-24,19.37-4.5,12.43-.23,28.36,4.14,39.53a3.65,3.65,0,0,1,.14.35,101,101,0,0,0,25.61,37.25c18,16.63,51.46,40.35,94.07,38.06a12.31,12.31,0,0,1,13,11.52s0,.08,0,.12a12.58,12.58,0,0,1-8.85,12.47Z" style="fill:#6c63ff"/><path d="M194.07,352.83a12.6,12.6,0,0,1-9.87-1c-38.56-21.85-65.63-51.23-85.12-92.41l-.08-.26c-12.28-27.45-19.68-69.4-3.36-104.86,12-26.16,34.64-44.55,67.07-54.57,38.35-11.85,74.06-3.12,103.36,25.1a153.26,153.26,0,0,1,32,45.3,12.52,12.52,0,0,1-23,9.81,128.15,128.15,0,0,0-27-37.76c-22.59-21.5-48.85-27.85-78.14-18.8-25.31,7.82-42.75,21.64-51.67,41.09-12.87,28-6.24,62.95,3.37,84.46,17.19,36.42,41,62.26,75,81.45a12.26,12.26,0,0,1,4.66,16.7h0a1.4,1.4,0,0,1-.1.16A12.54,12.54,0,0,1,194.07,352.83Z" style="fill:#6c63ff"/><circle cx="198.13" cy="213.77" r="15.95" style="fill:#e6e6e6"/></g></g></svg>