<svg xmlns="http://www.w3.org/2000/svg" viewBox="0 0 685.02 630.89"><title>selfie</title><g id="Layer_2" data-name="Layer 2"><g id="Layer_1-2" data-name="Layer 1"><path d="M0,340H0Z" style="fill:#fdfdfd"/><path d="M0,340H0Z" style="fill:#ececec"/><path d="M0,380H0Z" style="fill:#fdfdfd"/><path d="M0,380H0Z" style="fill:#ececec"/><path d="M0,420H0Z" style="fill:#fdfdfd"/><path d="M0,420H0Z" style="fill:#ececec"/><path d="M20,320h0Z" style="fill:#fdfdfd"/><path d="M0,340H0Z" style="fill:#ececec"/><path d="M20,320h0Z" style="fill:#ececec"/><path d="M0,340H0Z" style="fill:#fdfdfd"/><path d="M20,360h0Z" style="fill:#fdfdfd"/><path d="M0,380H0Z" style="fill:#ececec"/><path d="M20,360h0Z" style="fill:#ececec"/><path d="M0,380H0Z" style="fill:#fdfdfd"/><path d="M20,400h0Z" style="fill:#fdfdfd"/><path d="M0,420H0Z" style="fill:#ececec"/><path d="M20,400h0Z" style="fill:#ececec"/><path d="M0,420H0Z" style="fill:#fdfdfd"/><path d="M20,440h0Z" style="fill:#fdfdfd"/><path d="M20,440h0Z" style="fill:#ececec"/><path d="M640.06,4.14l17.86-2.22a24.54,24.54,0,0,1,.61,4.77c-.41,6.44-1.06,12.86-1.5,19.3-1.09,16-2.09,32-3.21,48.05-.29,4.19-.87,8.37-1.32,12.56l-1.6.08q-.45-6.37-.91-12.75,1-21.29,2.06-42.59c.56-11.71.54-11.71-11-9.45L629.64,8.17,633,5.9Z" style="fill:#171717"/><path d="M664.09,0V12c0,1-.08,1.93-.13,2.9Q663,29.42,662.11,44c-.06,1.28-.12,2.57-.17,3.85Q661,63.9,660,80q-.56,7.93-1.13,15.88l-1.8,6.27Q658,87.22,659,72.33q2-32.05,3.91-64.11a30.09,30.09,0,0,0-.62-5.39l-1.52,0c-.26,1.5-.62,3-.74,4.5-1,12.23-2.11,24.46-2.89,36.72-1.8,28-3.39,56-5.16,84-.46,7.28-1.27,14.53-1.92,21.79l-5,.18.06-12.9a23.8,23.8,0,0,0,.85-3.84c.75-12.88,1.33-25.76,2.15-38.64.45-6.9,1.27-13.78,1.92-20.67q.45,6.38.91,12.75l1.6-.08c.45-4.19,1-8.37,1.32-12.56C654.94,58,655.94,42,657,26c.44-6.44,1.09-12.86,1.5-19.3a24.54,24.54,0,0,0-.61-4.77Z" style="fill:#1f1f1f"/><path d="M20,320h0Z" style="fill:#ececec"/><path d="M20,320h0Z" style="fill:#fdfdfd"/><path d="M20,360h0Z" style="fill:#ececec"/><path d="M20,360h0Z" style="fill:#fdfdfd"/><path d="M20,400h0Z" style="fill:#ececec"/><path d="M20,440h0Z" style="fill:#ececec"/><path d="M40,420h0Z" style="fill:#ececec"/><path d="M20,440h0Z" style="fill:#fdfdfd"/><path d="M650,73.93c-.65,6.89-1.47,13.77-1.92,20.67-.82,12.88-1.4,25.76-2.15,38.64a23.8,23.8,0,0,1-.85,3.84c.27-10,.58-19.89.8-29.83.25-11.41.55-22.81.6-34.22,0-11.62.44-23.3-.49-34.86-.87-10.85-5-13.82-16.05-14.23L641,21.89c11.59-2.26,11.61-2.26,11,9.45Q651,52.64,650,73.93Z" style="fill:#545454"/><path d="M641,21.89l-11.06,2.05L625,24c-8.77.41-9.48-9.25-16.79-12L613,9l8.24-1.93L633,5.9l-3.35,2.27Z" style="fill:#252525"/><path d="M650,149.8c.65-7.26,1.46-14.51,1.92-21.79,1.77-28,3.36-56,5.16-84C657.89,31.77,659,19.54,660,7.31c.12-1.51.48-3,.74-4.5l1.52,0a30.09,30.09,0,0,1,.62,5.39Q661,40.27,659,72.33q-.93,14.9-1.89,29.8l-1,34.89L655,150Z" style="fill:#171717"/><path d="M684.94,101c-2.37-6.61-8.11-4.66-12.91-5.1a86.2,86.2,0,0,0-8.42,2.91c-3.38,1.54-4.53.2-4.73-3l-1.8,6.27-1,34.89c1.51-2.76-.26-7.5,4.89-8.05,4.48-2.46,9.16-4.63,13.41-7.44C681.68,116.75,685.64,110,684.94,101Zm-18.8,17.83a7.36,7.36,0,0,1-1.49-.17,1.67,1.67,0,0,1-.32-.08l-.3-.09a4.35,4.35,0,0,1-.54-.22l-.37-.21a1.87,1.87,0,0,1-.29-.2,3.56,3.56,0,0,1-.9-1,2.94,2.94,0,0,1-.25-.46l-.11-.24a3.75,3.75,0,0,1-.17-.47,7,7,0,0,1-.2-.85c0-.15-.05-.3-.07-.46a1.24,1.24,0,0,1,0-.27c0-.15,0-.3,0-.45,0-.4,0-.82,0-1.25,0-.15,0-.31,0-.46a10.25,10.25,0,0,1,.2-2.1,7.64,7.64,0,0,1,.24-1,4.11,4.11,0,0,1,.15-.46,5.7,5.7,0,0,1,.29-.72c0-.1.09-.2.14-.3s.25-.48.39-.71.34-.53.53-.79l.34-.42a9.47,9.47,0,0,1,3.82-2.71,8.16,8.16,0,0,1,1-.32,3.92,3.92,0,0,1,.49-.13,2.05,2.05,0,0,1,.34-.07c.22,0,.45-.09.68-.12a7.4,7.4,0,0,1,.81-.08c.27,0,.53,0,.8,0h.33c3.61.1,6.08,1.76,6.26,5.59C678,112.08,670.75,119,666.14,118.86Z" style="fill:#9a9a9a"/><path d="M625,24l4.9-.06c11,.41,15.17,3.38,16,14.23.93,11.56.53,23.24.49,34.86-.05,11.41-.35,22.81-.6,34.22-.22,9.94-.53,19.88-.8,29.83L645,150l-5,1,1-6c.66-8.08,1.66-16.14,1.91-24.22.56-18.59.75-37.19,1.09-55.78V60c-.34-6.88,0-13.9-1.31-20.59-.71-3.61-3.58-8.34-6.68-9.6-5.9-2.4-12.67-2.68-19.07-3.84Z" style="fill:#5f5f5f"/><path d="M640,151l5-1,5-.18L655,150l3,1-8,2c-.83,0-1.67,0-2.5,0-7.47.13-11.69,4.14-11.74,11.17-.07,8.76,3.78,13.37,11.42,13.86a33.63,33.63,0,0,1,4.81,1c-3,0-6,.07-9-.05-8.83-.35-12.8-4.82-13-13.61C629.74,157.82,635.1,154.66,640,151Z" style="fill:#777"/><path d="M625,24,617,26l-7,1L601,27.9l-9.77-14.21L595,11.83l4-1L613,9l-4.75,3C615.56,14.75,616.27,24.41,625,24Z" style="fill:#2f2f2f"/><path d="M595,11.83l-3.71,1.86L601,27.9,597,29,579,31h-2c-.69-3.24-1.59-6.45-2-9.73-.5-3.82-2.4-5.62-6.23-5.43l13.46-2.73Z" style="fill:#3b3b3b"/><path d="M568.79,15.84c3.83-.19,5.73,1.61,6.23,5.43.42,3.28,1.32,6.49,2,9.73-6.37,1.11-12.73,2.33-19.13,3.3-3.84.58-5.92,2.12-5.91,6.42a139,139,0,0,1-1.12,13.93c-3.29,33.45-6.54,66.91-10,100.34-.46,4.45-1.93,8.79-2.93,13.18L531.06,165l.87-10,1.24-15q1-10,1.91-20,.55-5.85,1.09-11.7,1.37-14.16,2.74-28.32.6-6.89,1.21-13.77c.31-1.94.72-3.86.92-5.81q2.16-20.65,4.26-41.31L558,17Z" style="fill:#151515"/><path d="M40,420h0Z" style="fill:#ececec"/><path d="M40,420h0Z" style="fill:#fdfdfd"/><path d="M60,440h0" style="fill:none"/><path d="M60,440h0Z" style="fill:#ececec"/><path d="M546.29,376.36c-4,11.47-8.57,22.75-13.51,33.83-6.35,14.24-13.19,28.27-20.09,42.26-2.49,5-5.76,9.69-8.68,14.52.57-2.07.8-4.33,1.77-6.2,4.66-9,10-17.67,14.21-26.88,8.09-17.84,16.12-35.75,23.09-54,4.59-12.05,2.59-15.92-9-22.23-18.38-10-37-19.71-55.59-29.25-5-2.55-10.47-2.54-15,1.54-6.37,5.8-12.64,11.73-18.72,17.83C441,351.6,437.6,355.88,434,360q-13.06,13.68-26.11,27.35c-4.45,4.69-8.78,9.5-13.26,14.17-2.29,2.39-4.9,4.48-7.17,6.89-6.72,7.15-13.29,14.42-20,21.58C360.33,437.6,353,445.05,346,452.79c-4.65,5.13-9.36,10.32-13.19,16-8.2,12.29-18.44,18.9-34,16.35-8.12-1.34-16.6-1.18-24.87-.79-18.4.89-36.79,2.31-55.17,3.6-7.92.55-15.83,1.31-23.74,2-16.25.68-32.52,1-48.73,2.14C128.8,493.32,122,500,119.34,517a64.37,64.37,0,0,0-.33,7c-.67,3-1.88,6-1.91,9-.18,17.55-.12,35.11,0,52.66a42.52,42.52,0,0,0,1,6.29c.33,2,.67,4,1,6,.68,5.59,1,11.25,2.13,16.76,1.76,8.94,6.52,13.31,15.59,13.08,14.59-.37,29.25-.93,43.74-2.59,22.62-2.59,45.1-6.36,67.69-9.22,9.88-1.25,19.9-1.3,29.82-2.23,19-1.78,38-4.61,57-5.51,19.84-.93,37.62-8.42,55.53-15.32,16.2-6.25,27.36-19.69,39.25-31.75,4.31-4.38,8.3-9.08,12.23-13.79,4.77-5.72,9.33-11.61,14-17.43l12-15a29.14,29.14,0,0,0,3.1-3.19c9.4-13,18.73-26.1,28.14-39.13,1.44-2,3.17-3.79,4.76-5.68-4.25,6.74-8.43,13.52-12.78,20.18-1.45,2.22-3.42,4.09-5,6.21-12.58,16.74-24.3,34.2-37.9,50s-24.6,34.15-42.8,45c-11.58,6.9-24.59,11.62-37.33,16.31-23.57,8.69-48.61,8.79-73.22,11.33s-48.93,5.22-73.42,7.66c-22.33,2.23-44.68,4.26-67,6.27a153.87,153.87,0,0,1-17.42.89c-12.41-.27-16.8-4.84-18.23-17.13-.35-3-2.4-5.85-3.67-8.76q0-6,0-12.05a35.46,35.46,0,0,0,.8-5.35q.09-29.12,0-58.21a36.45,36.45,0,0,0-.78-5.36q0-11,0-22c.48,2.48,1,4.95,1.72,8.82,1-2.94,1.64-4.44,2-6,2-9,8-13.41,16.73-14.65,5.27-.75,10.52-1.87,15.81-2.07,22.07-.86,44.16-1.4,66.24-2.15,6.8-.23,13.6-.68,20.39-1.16,4.48-.33,8.95-.89,13.92-1.39-.78-.74-1-1.13-1.22-1.14q-16.45-.21-32.91-.36c8.61-.28,17.23-.58,25.84-.84q18.16-.56,36.33-1.06l20-.15c9.22.91,18.21,1.2,23.32-8.79L333,461l8.28-8.83L352,441l9.26-9.83L371,421l10.21-10.87,8.77-9.17L401.13,389l7.8-8.22c.87-.77,1.79-1.48,2.59-2.31,18-19,36.19-37.91,54-57.14,3.15-3.39,5.33-3.63,8.5-.88.63.54,1.35.95,2,1.43L503,337c1.4.86,2.75,1.81,4.2,2.57Q522.11,347.29,537,355c.8,1.2,1.32,2.8,2.43,3.52C548.8,364.53,549.86,366.05,546.29,376.36Z" style="fill:#3a3a3a"/><path d="M581.66,322l-1.74,1.8c-6.46,2.92-13,5.78-19.36,8.85a5.71,5.71,0,0,0-2.79,3.08c-2.4,8.41-4.58,16.87-6.83,25.32L537,355q-14.91-7.7-29.81-15.42c-1.45-.76-2.8-1.71-4.2-2.57-1.15-1.38-2.07-3.08-3.49-4.05-3.54-2.43-7.32-4.52-11-6.73-4.12-2.47-6.74-5.81-6.55-10.9.08-2.32.4-4.74-.15-6.93-1-3.88-2.51-7.6-3.81-11.39-.06-1.57-.11-3.13-.16-4.69s.2-2.82.3-4.23c.78,1,2,1.92,2.26,3.06,1.67,6.94,2.94,14,4.72,20.89.93,3.6,1.64,8.17,4.15,10.28,15.33,12.93,32.75,22.56,51.2,30.34,4.21,1.78,7.36.33,8.91-3.65,2.16-5.55,3.79-11.31,5.64-17a31.83,31.83,0,0,0,4.14-1.5c7.31-3.79,14.57-7.67,21.84-11.52C581.23,320,581.44,321,581.66,322Z" style="fill:#6a6a6a"/><path d="M252,483.4c-5,.5-9.44,1.06-13.92,1.39-6.79.48-13.59.93-20.39,1.16-22.08.75-44.17,1.29-66.24,2.15-5.29.2-10.54,1.32-15.81,2.07-8.75,1.24-14.77,5.61-16.73,14.65-.35,1.57-1,3.07-2,6-.76-3.87-1.24-6.34-1.72-8.82q-.14-9-.25-18l5.08-1.13,40.05-.73c2.16.05,4.32.14,6.48.13l51.31-.35q16.46.17,32.91.36C251,482.27,251.19,482.66,252,483.4Z" style="fill:#333"/><path d="M115.19,524a36.45,36.45,0,0,1,.78,5.36q.09,29.1,0,58.21a35.46,35.46,0,0,1-.8,5.35Z" style="fill:#3e3e3e"/><path d="M661,112c0-5.82,4.46-10.09,10.51-9.93,3.61.1,6.08,1.76,6.26,5.59.22,4.44-7,11.32-11.65,11.22S661,115.59,661,112Z" style="fill:#a2a2a2"/><path d="M597,29,601,27.9,610,27c4.94.39,10,.06,14.76,1.3,11.53,3,14.25,3.6,16.85,15.21,1.21,5.42,1.66,11,2.45,16.52v5a15.59,15.59,0,0,0-.92,3.33c-.73,14.59-1.59,29.18-2,43.79-.32,11-.06,21.92-.06,32.88l-1,6c-4.92,3.67-10.28,6.83-10.06,14.34.25,8.79,4.22,13.26,13,13.61,3,.12,6,0,9,.05l1.11,1c0,.68-.07,1.35-.1,2H638c-6.58.67-12.33,4.82-12.87,9.62-.73,6.5,1,14.33,9.06,16.74,2.36.7,4.6,1.76,6.9,2.66-2.73.66-5.58,1-8.16,2.05-5,2-11,3.51-11.88,9.89-1.34,9.76,1.15,20,14.08,18.07a31.76,31.76,0,0,1,5,0l-17.09.86a12.8,12.8,0,0,0-1-1.09c-7-6-8.38-11.7-5-20.23.53-1.33,0-3.07,0-4.62,0-.35,0-.69,0-1,2.56-1.82,8.38-.86,6-6.95l7.06,1.86c-1.41-1.64-1.73-2.27-2.23-2.57-6.38-3.69-8.35-9-6.26-16.06.29-.95-.37-2.19-.6-3.29,2.06-1.6,4.47-2.91,6-4.89,1.14-1.45,2.23-4.67,1.49-5.56-3.4-4.08-3.65-8.66-3.48-13.49l6-11,3-2c3.63-1.08,4.84-3.82,4.88-7.27.07-7.63,0-15.27.14-22.91.11-8.31.42-16.61.52-24.91.17-14.44.83-28.9.2-43.3C639.12,38,634,33,619.29,31,611.9,29.92,604.41,29.6,597,29Z" style="fill:#686868"/><path d="M641,145c0-11-.26-21.93.06-32.88.43-14.61,1.29-29.2,2-43.79A15.59,15.59,0,0,1,644,65c-.34,18.59-.53,37.19-1.09,55.78C642.67,128.84,641.67,136.9,641,145Z" style="fill:#616161"/><path d="M644,60c-.79-5.51-1.24-11.1-2.45-16.52-2.6-11.61-5.32-12.18-16.85-15.21C620,27,614.89,27.34,610,27l7-1c6.4,1.16,13.17,1.44,19.07,3.84,3.1,1.26,6,6,6.68,9.6C644,46.08,643.67,53.1,644,60Z" style="fill:#616161"/><path d="M653.11,180,652,179a33.63,33.63,0,0,0-4.81-1c-7.64-.49-11.49-5.1-11.42-13.86.05-7,4.27-11,11.74-11.17.83,0,1.67,0,2.5,0v0a30.5,30.5,0,0,1-4.18,3.42C641,159.18,639,163.9,641.27,169c3,6.7,9.06,8.51,15.58,8.85,4,.21,8.1-.57,12.16-.9l-1,1-13.8,2.12Z" style="fill:#838383"/><path d="M658,151c5.72.24,11.64,0,14.14,6.88-2.9-1.36-5.68-3.33-8.73-3.92-4.36-.85-8.92-.68-13.39-.95v0Z" style="fill:#838383"/><path d="M538,168.17c1-4.39,2.47-8.73,2.93-13.18,3.43-33.43,6.68-66.89,10-100.34A139,139,0,0,0,552,40.72c0-4.3,2.07-5.84,5.91-6.42,6.4-1,12.76-2.19,19.13-3.3h2l0,1c-.33,2-.65,4-1,6-12.35.71-19.31,6.61-20.9,18.66-2.31,17.45-4.22,35-6.16,52.46-1.65,14.87-3.28,29.74-4.56,44.64-.58,6.73-.29,13.54-.39,20.31Z" style="fill:#5b5b5b"/><path d="M579,32l0-1L597,29c7.45.64,14.94,1,22.33,2,14.7,2,19.83,7,20.46,21.63.63,14.4,0,28.86-.2,43.3-.1,8.3-.41,16.6-.52,24.91-.11,7.64-.07,15.28-.14,22.91,0,3.45-1.25,6.19-4.88,7.27.33-3.13.88-6.25,1-9.39.37-13.91.73-27.82.86-41.73.15-14.92.48-29.87-.22-44.76-.22-4.58-3-9.41-5.64-13.43-4.16-6.31-11.35-7.07-18.18-7.62C600.87,33.17,589.93,32.65,579,32Z" style="fill:#6e6e6e"/><path d="M538,168.17l8,5.88,2,2,2,1,9,3.93c5.1,1.33,10.15,2.9,15.31,3.93,4.66.93,9.06,5.09,9.61,9.86s-2.29,9.74-7.38,10.28c-9.11,1-18.35.7-27.54.94-11.37-5.76-17.45-5.56-23.09,1.92-2.23,2.95-3.38,7.21-3.74,11-.91,9.61,2.06,18.32,7.84,26.07-1.85-2-3.84-4-5.51-6.13s-3-4.58-4.48-6.88q-.51-7-1-14c1.12-2.68,2.22-5.36,3.36-8,3.72-8.66,12.5-11.82,22.8-7.19,9.93,4.46,19.5,2.85,29.18,0a7.21,7.21,0,0,0,5.58-7.39,6.65,6.65,0,0,0-6-7c-15.69-2.3-28.63-10.2-41-19.41l-4.15-2.14L531,164.9l.08.09Z" style="fill:#888"/><path d="M80,420h0" style="fill:none"/><line x1="60.02" y1="439.98" x2="60" y2="439.97" style="fill:none"/><path d="M80,420h0Z" style="fill:#ececec"/><path d="M60,440h0" style="fill:none"/><rect x="400.01" y="379.97" width="0.01" height="0.01" style="fill:#ececec"/><path d="M119,598l-1-6c0-19.07,0-38.13,0-57.2a49.67,49.67,0,0,1,1-6.8c0,18.66-.55,37.34.22,56,.41,9.87,2.93,19.69,4.85,29.46,1,5,4.23,8.6,9.4,9.13,7.57.78,15.36,2,22.78,1.05,29.84-4,59.56-8.8,89.34-13.2,14.6-2.16,29-4.87,44-5,17.08-.1,34.19-1.75,51.19-3.59,22.72-2.46,45-7.67,62.57-23.2,15.93-14.05,30.59-29.55,45.57-44.64,6.66-6.71,12.75-14,19.09-21v2l-12,15c-7.85,8.13-15.81,16.16-23.54,24.4-16.19,17.26-32.12,34.7-56.13,41.55-12.28,3.51-24,8.74-37.12,9.28-13.92.56-27.82,1.61-41.7,2.84-15.38,1.38-30.76,2.94-46.08,4.9-28.52,3.66-57,7.86-85.52,11.44a192.31,192.31,0,0,1-27.77,1.4c-10.16-.22-14.16-4.22-16.29-14.19C120.89,607.05,120,602.51,119,598Z" style="fill:#3e3e3e"/><path d="M119,598c.95,4.54,1.88,9.08,2.85,13.62,2.13,10,6.13,14,16.29,14.19a192.31,192.31,0,0,0,27.77-1.4c28.54-3.58,57-7.78,85.52-11.44,15.32-2,30.7-3.52,46.08-4.9,13.88-1.23,27.78-2.28,41.7-2.84,13.09-.54,24.84-5.77,37.12-9.28,24-6.85,39.94-24.29,56.13-41.55,7.73-8.24,15.69-16.27,23.54-24.4-4.65,5.82-9.21,11.71-14,17.43-3.93,4.71-7.92,9.41-12.23,13.79-11.89,12.06-23.05,25.5-39.25,31.75-17.91,6.9-35.69,14.39-55.53,15.32-19.06.9-38,3.73-57,5.51-9.92.93-19.94,1-29.82,2.23-22.59,2.86-45.07,6.63-67.69,9.22-14.49,1.66-29.15,2.22-43.74,2.59-9.07.23-13.83-4.14-15.59-13.08C120.05,609.22,119.69,603.56,119,598Z" style="fill:#3d3d3d"/><path d="M195,490c7.91-.66,15.82-1.42,23.74-2,18.38-1.29,36.77-2.71,55.17-3.6,8.27-.39,16.75-.55,24.87.79,15.53,2.55,25.77-4.06,34-16.35,3.83-5.73,8.54-10.92,13.19-16,7-7.74,14.38-15.19,21.53-22.83,6.7-7.16,13.27-14.43,20-21.58,2.27-2.41,4.88-4.5,7.17-6.89,4.48-4.67,8.81-9.48,13.26-14.17q13-13.71,26.11-27.35h1c-2.7,3.54-5.13,7.34-8.16,10.56-10.56,11.23-21.39,22.19-32,33.38-14.15,14.93-28.29,29.88-42.22,45-7.38,8-15.53,15.32-21,25.12-3.29,5.87-8.54,11.16-15.62,12.41a73.38,73.38,0,0,1-19.79.88A147,147,0,0,0,259,488c-14.08,1-28.14,2.12-42.23,2.9-15.59.87-31.21,1.18-46.79,2.2a200.6,200.6,0,0,0-28.13,3.39c-9.61,2-17,7.39-19.21,18-.6,2.91-1.75,5.71-2.64,8.55,1.67-19.36,7.17-25.91,24.49-29.16a41.7,41.7,0,0,1,5.42-.81c13.25-.71,26.51-1.33,39.77-2.06A40.71,40.71,0,0,0,195,490Z" style="fill:#3e3e3e"/><path d="M435,360h-1c3.59-4.09,7-8.37,10.82-12.23,6.08-6.1,12.35-12,18.72-17.83,4.49-4.08,10-4.09,15-1.54,18.64,9.54,37.21,19.22,55.59,29.25,11.57,6.31,13.57,10.18,9,22.23-7,18.29-15,36.2-23.09,54-4.18,9.21-9.55,17.88-14.21,26.88-1,1.87-1.2,4.12-1.77,6.2h0c-1.59,1.89-3.32,3.69-4.76,5.68-9.41,13-18.74,26.11-28.14,39.13A29.14,29.14,0,0,1,468,515v-2c1.33-2.33,2.67-4.66,4-7,3.31-4.58,6.68-9.12,9.93-13.74,7-9.9,14.35-19.56,20.69-29.85a262,262,0,0,0,15.88-29.94c7.84-17.41,15.34-35,22.15-52.84,3.52-9.21,1.14-14.1-7.09-19.52a153.5,153.5,0,0,0-14.15-8.35c-11.68-6-23.6-11.62-35.2-17.79-10.66-5.66-16.21-5.32-25.27,2.67-1.74,1.54-3.31,3.28-5,4.91Z" style="fill:#3d3d3d"/><path d="M320,460h0Z" style="fill:#ececec"/><path d="M320,460h0Z" style="fill:#ececec"/><path d="M340,440h0Z" style="fill:#ececec"/><path d="M340,440h0Z" style="fill:#ececec"/><rect x="360.01" y="419.97" width="0.01" height="0.01" style="fill:#ececec"/><rect x="380.01" y="399.97" width="0.01" height="0.01" style="fill:#ececec"/><path d="M503,337l-27-15.06c.57-1.55,1.59-3.07,1.65-4.64.26-6.76.24-13.53.33-20.3,1.3,3.79,2.85,7.51,3.81,11.39.55,2.19.23,4.61.15,6.93-.19,5.09,2.43,8.43,6.55,10.9,3.68,2.21,7.46,4.3,11,6.73C500.94,333.9,501.86,335.6,503,337Z" style="fill:#5f5f5f"/><path d="M195,490a40.71,40.71,0,0,1-5.32,1c-13.26.73-26.52,1.35-39.77,2.06a41.7,41.7,0,0,0-5.42.81c-17.32,3.25-22.82,9.8-24.49,29.16l-1,1h0a64.37,64.37,0,0,1,.33-7c2.62-17,9.46-23.69,26.94-24.9C162.49,491,178.76,490.65,195,490Z" style="fill:#3d3d3d"/><path d="M333,461l-9.67,10.11L320,460h0Z" style="fill:#fcfcfc"/><path d="M340,440h0Z" style="fill:#fbfbfb"/><path d="M371,421l-9.73,10.17L360,420h0Z" style="fill:#fbfbfb"/><path d="M119,528a49.67,49.67,0,0,0-1,6.8c-.07,19.07,0,38.13,0,57.2a42.52,42.52,0,0,1-1-6.29c-.07-17.55-.13-35.11,0-52.66,0-3,1.24-6,1.91-9h0Z" style="fill:#3d3d3d"/><path d="M390,400.91l-8.77,9.17c-.4-3.37-.8-6.73-1.19-10.1h0Z" style="fill:#fafafa"/><path d="M408.93,380.82l-7.8,8.22c-.37-3-.75-6-1.12-9.06h0Z" style="fill:#f8f8f8"/><path d="M581,319c-7.27,3.85-14.53,7.73-21.84,11.52A31.83,31.83,0,0,1,555,332l0,0,6-5,13-8,6-4c2.91-1.51,6.32-2.48,8.63-4.63,10.93-10.13,21.82-20.32,32.15-31.05a87,87,0,0,0,12.6-17.24c5-8.74,1.51-13.08-5.81-13.35-8.27-.3-16.51-1.16-24.78-1.65-1.25-.07-2.54.58-3.81.9l-26-1c0-.27,0-.54,0-.81l51-.35,14,.31c2.94,3.34,4.15,7,1.76,11.13-1.13,2-2.47,3.82-3.71,5.73-9.13,11-17.75,22.4-27.55,32.73C600.73,303.85,591.54,310.6,583,318Z" style="fill:#747474"/><path d="M555,332c-1.85,5.67-3.48,11.43-5.64,17-1.55,4-4.7,5.43-8.91,3.65-18.45-7.78-35.87-17.41-51.2-30.34-2.51-2.11-3.22-6.68-4.15-10.28-1.78-6.91-3.05-13.95-4.72-20.89-.27-1.14-1.49-2.05-2.27-3.07.62-2.69,1.25-5.38,1.87-8.07.34,2.66.67,5.32,1,8l3,8c.46,1.91.61,4,1.46,5.71,2.72,5.49,5.59,10.92,8.65,16.23a31.2,31.2,0,0,0,5.11,6.7C510.16,335.33,523.08,343,537,349c7.32,3.19,11.78.93,13-7.06.34-1.67.67-3.34,1-5l4-5Z" style="fill:#747474"/><path d="M586.26,319.59q-2.31,1.17-4.6,2.36c-.22-1-.43-2-.65-3l2-1a36.38,36.38,0,0,0,5.22-2.73,215.44,215.44,0,0,0,40.68-40c2.9-3.67,4.76-8.17,7.1-12.28,1.24-1.91,2.58-3.76,3.71-5.73,2.39-4.15,1.18-7.79-1.76-11.13a46.07,46.07,0,0,0,6.87-.27c1.36-.24,2.55-1.4,3.81-2.14L645,240.86c0-.26.1-.53.13-.8l5,1q-3.68,9.41-7.33,18.81-1.4,2.5-2.8,5l-10.08,15.07-9.92,11.94-8,8.1-11,9.67Z" style="fill:#626262"/><path d="M480,280c-.62,2.69-1.25,5.38-1.87,8.07-.09,1.41-.19,2.82-.29,4.24l-.78-.46L477,271Z" style="fill:#7c7c7c"/><path d="M160.05,482.12l-40.05.73c0-1,0-1.91,0-2.87,4.94,0,9.88.16,14.81-.1,1.76-.1,3.47-1.24,5.2-1.9,1.85.65,3.67,1.76,5.54,1.87,4.8.28,9.62.11,14.44.13h0C160,480.7,160,481.41,160.05,482.12Z" style="fill:#ededed"/><rect x="120" y="479.97" width="0.01" height="0.01" style="fill:#ececec"/><path d="M672.14,157.86c-2.9-1.36-5.68-3.33-8.73-3.92-4.36-.85-8.92-.68-13.39-.95a30.5,30.5,0,0,1-4.18,3.42C641,159.18,639,163.9,641.27,169c3,6.7,9.06,8.51,15.58,8.85,4,.21,8.1-.57,12.16-.9,5.48-3.26,4.38-8.87,5-13.88Q673.06,160.46,672.14,157.86ZM659.58,176c-7.13,0-13.53-5-13.51-10.54s6.4-10.34,13.73-10.42c7.14-.08,10.91,3.76,11,11.22C670.92,172.36,666.75,176,659.58,176Z" style="fill:#8e8e8e"/><path d="M625,164c-.17,4.83.08,9.41,3.48,13.49.74.89-.35,4.11-1.49,5.56-1.57,2-4,3.29-6,4.89q-2,4-4,8c-.66,2.67-1.33,5.34-2,8-.34-1.33-.67-2.67-1-4l-1-6c1-1,2.58-1.95,2.78-3.11.91-5.23,2.36-10.61,1.88-15.78-1.69-18.19-4-36.33-6.25-54.47-2.42-19.8-5.09-39.57-7.4-59.39-1-8.93-1.74-10.26-10.75-12.37-4-.94-8.17-1.27-12.27-1.88-.65-1.33-1.31-2.67-2-4,0-.32,0-.65,0-1,13.29-1.33,26.17.09,38.15,6.32a9.88,9.88,0,0,1,4.3,5.23c1.53,4.71,3.18,9.62,3.34,14.5.61,18,.79,36.12.82,54.19C625.69,136.15,625.25,150.07,625,164Z" style="fill:#878787"/><path d="M625,164c.23-13.92.67-27.84.64-41.75,0-18.07-.21-36.14-.82-54.19-.16-4.88-1.81-9.79-3.34-14.5a9.88,9.88,0,0,0-4.3-5.23c-12-6.23-24.86-7.65-38.15-6.32,0-1.34,0-2.68,0-4a8.41,8.41,0,0,1,2.82-.87c10.9.8,21.91,1,32.68,2.76,9.69,1.56,15.28,8.27,16.34,18.19a146.17,146.17,0,0,1,1.09,16.84c-.16,17.44-.68,34.88-.94,52.32-.13,8.58,0,17.16,0,25.74Z" style="fill:#7e7e7e"/><path d="M631,153c0-8.58-.14-17.16,0-25.74.26-17.44.78-34.88.94-52.32a146.17,146.17,0,0,0-1.09-16.84c-1.06-9.92-6.65-16.63-16.34-18.19-10.77-1.73-21.78-2-32.68-2.76A8.41,8.41,0,0,0,579,38l-1,0v0c.33-2,.65-4,1-6,10.93.68,21.87,1.2,32.79,2.08,6.83.55,14,1.31,18.18,7.62,2.65,4,5.42,8.85,5.64,13.43.7,14.89.37,29.84.22,44.76-.13,13.91-.49,27.82-.86,41.73-.08,3.14-.63,6.26-1,9.39Z" style="fill:#787878"/><path d="M617.05,214.94l0,1-2.23,4a40.11,40.11,0,0,0-6.27-1c-20.81-.07-41.62,0-62.43,0-12.92,0-12.92,0-10.23-12.82L546,208.94l18,2c2.83,1,5.64,2.8,8.49,2.86,14.83.29,29.67.14,44.5.14C617,214.3,617,214.62,617.05,214.94Z" style="fill:#545454"/><path d="M678.66,194c-.85-6.56-3.88-9.74-10.4-10.82-3.26-.55-6.59-.67-9.85-1.26a19.4,19.4,0,0,1-4.21-1.83l-1.09-.1c0,.68-.07,1.35-.1,2-2.77.34-5.52.79-8.3,1-7.26.51-11.71,5.08-11.69,12.16,0,8.52,3.7,12.5,11.69,12.86a59.23,59.23,0,0,1,6.3,1l.94,2h7a26.35,26.35,0,0,1,4.74-.89c7.36,0,12.83-2.76,15.26-10.15C678.84,198,678.91,196,678.66,194Zm-10.88,12.45c-8.41,2.95-16.85,1.33-25.07-.61-4.86-1.14-6.83-6.22-6-12.3.74-5.41,4.2-9,9.38-9.44,2.65-.22,5.33,0,8,0,0-.22.06-.44.1-.66,4.56.73,9.25,1,13.67,2.28,5.59,1.59,8.06,5.35,8.09,10.67C676,201,673.22,204.52,667.78,206.43Z" style="fill:#8e8e8e"/><path d="M645.09,240.06c0,.27-.08.54-.13.8l-4.84.2a31.76,31.76,0,0,0-5,0c-12.93,1.92-15.42-8.31-14.08-18.07.87-6.38,6.89-7.89,11.88-9.89,2.58-1,5.43-1.39,8.16-2.05L652,211H652c-1.59.66-3.12,1.64-4.78,1.91-3.59.6-7.28.65-10.87,1.25-6.73,1.13-11.28,6.44-10.74,12.22,1,10.74,3.55,13.54,12.49,13.62Z" style="fill:#7a7a7a"/><path d="M652,211l-10.84,0c-2.3-.9-4.54-2-6.9-2.66-8.09-2.41-9.79-10.24-9.06-16.74.54-4.8,6.29-9,12.87-9.62a20.49,20.49,0,0,1-2.19,2c-6.05,4.08-7.6,8.33-5.65,15.67,1.63,6.14,5.25,8.9,12.39,9.27,2.81.14,5.63,0,8.44.05Z" style="fill:#747474"/><path d="M651,209c-2.81,0-5.63.09-8.44-.05-7.14-.37-10.76-3.13-12.39-9.27-1.95-7.34-.4-11.59,5.65-15.67a20.49,20.49,0,0,0,2.19-2h15c-2.77.34-5.52.79-8.3,1-7.26.51-11.71,5.08-11.69,12.16,0,8.52,3.7,12.5,11.69,12.86A59.23,59.23,0,0,1,651,209Z" style="fill:#818181"/><path d="M614.78,219.93l2.23-4c0,1.55.53,3.29,0,4.62-3.35,8.53-2,14.28,5,20.23a12.8,12.8,0,0,1,1,1.09l-1,.16c-5.08-.88-9.8-2.5-11.07-8.22C609.78,228.68,610.5,223.75,614.78,219.93Z" style="fill:#595959"/><path d="M622,242.08l1-.16,17.09-.86,4.84-.2,3.68,2.85c-1.26.74-2.45,1.9-3.81,2.14a46.07,46.07,0,0,1-6.87.27l-14-.31Z" style="fill:#2b2b2b"/><path d="M617,196q2-4,4-8c.23,1.1.89,2.34.6,3.29-2.09,7-.12,12.37,6.26,16.06.5.3.82.93,2.23,2.57L623,208A11.9,11.9,0,0,1,617,196Z" style="fill:#5c5c5c"/><path d="M617,196a11.9,11.9,0,0,0,6,12c2.43,6.09-3.39,5.13-6,6.95,0-.32,0-.64,0-1l-2-6v-4Z" style="fill:#797979"/><path d="M548,176l-2-2c.1-6.77-.19-13.58.39-20.31,1.28-14.9,2.91-29.77,4.56-44.64,1.94-17.5,3.85-35,6.16-52.46,1.59-12,8.55-18,20.9-18.66v0a42.77,42.77,0,0,1-5.6,3.67c-5.84,2.67-11,6.31-12.27,12.82-2.11,10.57-3.84,21.26-5,32-2.25,20.44-4.16,40.93-5.9,61.42C548.44,157.21,548.39,166.64,548,176Z" style="fill:#636363"/><path d="M564,211l-18-2-1-3h4c9.19-.24,18.43,0,27.54-.94,5.09-.54,7.92-5.65,7.38-10.28s-4.95-8.93-9.61-9.86c-5.16-1-10.21-2.6-15.31-3.93-3.13-3.26-3.24-7.19-2.82-11.4,2.33-23.32,4.26-46.69,6.93-70,1.42-12.36,3.76-24.64,6.27-36.84C570.65,56.57,574.92,52.23,581,50a23.26,23.26,0,0,1,.78,2.36c6.45,29.89,12.81,59.79,19.35,89.65,3.81,17.37,7.91,34.67,11.88,52l1,6c-5.87.66-11.74,1.36-17.62,2-5,.53-8.78-.77-8.67-5.13-1.21,2.62-3,6.37-4.7,10.13Z" style="fill:#797979"/><path d="M581,50c-6.08,2.26-10.35,6.6-11.61,12.78-2.51,12.2-4.85,24.48-6.27,36.84-2.67,23.29-4.6,46.66-6.93,70-.42,4.21-.31,8.14,2.82,11.4L550,177a33.18,33.18,0,0,1-.46-5.85c1.06-11.06,2.25-22.12,3.43-33.17,2.72-25.24,5.35-50.49,8.24-75.71C562.41,51.58,568.65,45.16,579,43c.65,1.34,1.31,2.68,2,4Z" style="fill:#6d6d6d"/><path d="M519,218q.5,7,1,14l1,6h-1c-6-8-4.34-16.89-1.89-25.38,3.49-12.07,8.93-15.61,21.6-15.63a57.15,57.15,0,0,0,9-.23c1.8-.28,4.26-1.31,4.88-2.7.51-1.13-.81-3.83-2.1-4.9A140.29,140.29,0,0,0,536.77,178c-9.38-5.94-15.69-5.43-24,1.87-7.88,6.89-15.05,14.64-23.21,21.15-9.67,7.71-10.31,17.87-9.86,28.73.21,5.08.26,10.16.38,15.24-.94-5.54-2.28-11.06-2.74-16.64-.92-11.26.45-21.25,11.1-28.82,8.41-6,15.14-14.28,22.62-21.56l6-5h17c10.82,7.21,22,13.79,34.27,18.27,2,.74,3.5,3,5.22,4.61a46.89,46.89,0,0,1-5.3,4.89,8,8,0,0,1-4.7,1.42c-6.42-.47-13.06-.41-19.18-2.11C530,196.06,519.74,203,519,218Z" style="fill:#a6a6a6"/><path d="M520,165.05,531,164.9l-2.13,1.95L533,169c-9.32-.55-18.34-.29-24,9-8,7.49-15.77,15.27-24.1,22.39-8.57,7.33-11.52,15.82-9.49,27,2.24,12.4,3.12,25,4.59,37.57,0,.67,0,1.35,0,2-.67-3.81-1.24-7.64-2.09-11.42-.2-.9-1.31-1.61-2-2.41l-.83-.3c-.35-3.29-.69-6.59-1-9.88-.2-2.14-.3-4.31-.61-6.44-1.1-7.52-2.28-15-3.42-22.56q2.49-4.54,5-9.08l7-6.93c6.08-5.56,12.06-11.27,18.29-16.66C506.75,175.73,513.45,170.46,520,165.05Z" style="fill:#8e8e8e"/><path d="M579,43c-10.39,2.19-16.63,8.61-17.86,19.34-2.89,25.22-5.52,50.47-8.24,75.71-1.18,11-2.37,22.11-3.43,33.17A33.18,33.18,0,0,0,550,177l-2-1c.39-9.39.44-18.82,1.24-28.18,1.74-20.49,3.65-41,5.9-61.42,1.18-10.72,2.91-21.41,5-32,1.3-6.51,6.43-10.15,12.27-12.82A42.77,42.77,0,0,0,578,38l1,0c0,1.33,0,2.67,0,4C579,42.32,579,42.65,579,43Z" style="fill:#656565"/><path d="M509,178c5.65-9.28,14.67-9.54,24-9,12.36,9.21,25.3,17.11,41,19.41a6.65,6.65,0,0,1,6,7,7.21,7.21,0,0,1-5.58,7.39c-9.68,2.85-19.25,4.46-29.18,0-10.3-4.63-19.08-1.47-22.8,7.19-1.14,2.67-2.24,5.35-3.36,8,.72-15,10.93-21.93,25.3-17.93,6.12,1.7,12.76,1.64,19.18,2.11a8,8,0,0,0,4.7-1.42,46.89,46.89,0,0,0,5.3-4.89c-1.72-1.58-3.19-3.87-5.22-4.61C556,186.77,544.83,180.19,534,173q-8.5-6-17,0l-6,5Z" style="fill:#999"/><path d="M549,206h-4c-1.28-.31-2.59-.55-3.84-.95-8.34-2.66-14.08.13-16.64,8.36-1.51,4.82-2.17,9.72.24,14.51q3.69,8.5,7.39,17L530,245c-5.78-7.75-8.75-16.46-7.84-26.07.36-3.79,1.51-8.05,3.74-11C531.56,200.42,537.64,200.22,549,206Z" style="fill:#7e7e7e"/><path d="M530,245l2.14-.08.89,1,1,2.12h-4q-4.5-5-9-10l-1-6c1.48,2.3,2.82,4.72,4.48,6.88S528.17,242.94,530,245Z" style="fill:#9a9a9a"/><line x1="80.02" y1="419.98" x2="80" y2="419.97" style="fill:none"/><path d="M80,420h0" style="fill:none"/><path d="M420,320h0Z" style="fill:#fdfdfd"/><path d="M400,340h0" style="fill:none"/><path d="M380,360h0" style="fill:none"/><rect x="400.01" y="379.97" width="0.01" height="0.01" style="fill:#fdfdfd"/><path d="M180,440h0Z" style="fill:#fdfdfd"/><path d="M200,440h0Z" style="fill:#fdfdfd"/><path d="M220,440h0Z" style="fill:#fdfdfd"/><path d="M240,440h0Z" style="fill:#fdfdfd"/><path d="M260,440h0Z" style="fill:#fdfdfd"/><path d="M280,440h0Z" style="fill:#fdfdfd"/><path d="M119,528v-4l1-1c.89-2.84,2-5.64,2.64-8.55,2.18-10.57,9.6-15.95,19.21-18A200.6,200.6,0,0,1,170,493.07c15.58-1,31.2-1.33,46.79-2.2,14.09-.78,28.15-1.92,42.23-2.9v1c-13.27,1.67-26.53,3.44-39.82,5-7.71.89-15.45,1.37-23.18,2-1.84-.73-3.72-2.15-5.52-2.07-11.12.52-22.24,1.22-33.32,2.21a86.55,86.55,0,0,0-14.72,2.65c-13.78,3.68-20.33,13.66-21.15,27.11-1,16.41-1.2,32.9-1.17,49.36A165,165,0,0,0,122.25,600c2.34,15.09,7,20.29,18.54,21.71a32,32,0,0,0,9,0c17.88-2.92,35.73-6,53.58-9.13,13.93-2.45,27.74-5.88,41.77-7.43,24.38-2.67,48.89-4.23,73.34-6.27,3.48-.29,7-1,10.42-.91,19.28.62,37.63-3.35,55.25-10.95a24.68,24.68,0,0,0,5.53-3.28c9.4-7.39,19.12-14.44,28-22.44,10.82-9.77,21-20.24,31.26-30.65,7.91-8.05,15.44-16.48,23.14-24.74-1.33,2.34-2.67,4.67-4,7-6.34,7-12.43,14.29-19.09,21-15,15.09-29.64,30.59-45.57,44.64-17.61,15.53-39.85,20.74-62.57,23.2-17,1.84-34.11,3.49-51.19,3.59-14.94.1-29.39,2.81-44,5-29.78,4.4-59.5,9.22-89.34,13.2-7.42,1-15.21-.27-22.78-1.05-5.17-.53-8.43-4.17-9.4-9.13-1.92-9.77-4.44-19.59-4.85-29.46C118.46,565.31,119,546.63,119,528Z" style="fill:#414141"/><path d="M472,506c-7.7,8.26-15.23,16.69-23.14,24.74-10.23,10.41-20.44,20.88-31.26,30.65-8.85,8-18.57,15-28,22.44a24.68,24.68,0,0,1-5.53,3.28c-17.62,7.6-36,11.57-55.25,10.95-3.46-.11-6.94.62-10.42.91-24.45,2-49,3.6-73.34,6.27-14,1.55-27.84,5-41.77,7.43-17.85,3.13-35.7,6.21-53.58,9.13a32,32,0,0,1-9,0c-11.54-1.42-16.2-6.62-18.54-21.71a165,165,0,0,1-2.12-24.79c0-16.46.17-33,1.17-49.36.82-13.45,7.37-23.43,21.15-27.11a86.55,86.55,0,0,1,14.72-2.65c11.08-1,22.2-1.69,33.32-2.21,1.8-.08,3.68,1.34,5.52,2.07-4.31.33-8.63.53-12.92,1-13,1.52-26.12,2.8-39.05,4.95-4,.66-7.93,3.36-11.27,5.93-8,6.21-10.42,15.36-10.65,24.86-.39,16.48-.52,33,.08,49.47a92.72,92.72,0,0,0,4.06,22.44c2.63,9,9.1,13.81,18.36,13.11,10.39-.79,20.7-2.88,31-4.87,23-4.45,45.88-9.82,69-13.63,19.64-3.23,39.56-4.85,59.37-7.1,4.61-.53,9.26-.83,13.91-1,7.78-.32,15.57-.38,23.35-.74,4.14-.19,8.26-.73,12.38-1.19,5.22-.59,11.14.1,15.48-2.19,8.7-4.57,16.68-10.58,24.66-16.4,10.07-7.34,20.07-14.81,29.71-22.7,10.28-8.4,20.72-16.77,30-26.24a316.14,316.14,0,0,0,29.1-34c9-12.29,16.6-25.65,24.46-38.74,3.94-6.56,7.08-13.58,10.64-20.37a248.71,248.71,0,0,0,19-46.62c2.68-9.3.14-16.49-7.86-20.95-15.08-8.43-30.6-16.07-45.89-24.12-7.88-4.15-15.4-3.52-21.67,2.59-14.15,13.8-28,27.91-41.8,42.05-7.76,8-15.18,16.24-22.78,24.36-15.45,16.5-30.59,33.32-46.53,49.34-6.87,6.9-12.41,14.46-17.8,22.43s-12.85,13-23.51,12.47c-16.57-.82-33.18-.79-49.77-1.13v-1a147,147,0,0,1,37.2-.63,73.38,73.38,0,0,0,19.79-.88c7.08-1.25,12.33-6.54,15.62-12.41,5.49-9.8,13.64-17.09,21-25.12,13.93-15.14,28.07-30.09,42.22-45,10.6-11.19,21.43-22.15,32-33.38,3-3.22,5.46-7,8.16-10.56l19-18.45c1.67-1.63,3.24-3.37,5-4.91,9.06-8,14.61-8.33,25.27-2.67,11.6,6.17,23.52,11.76,35.2,17.79a153.5,153.5,0,0,1,14.15,8.35c8.23,5.42,10.61,10.31,7.09,19.52-6.81,17.84-14.31,35.43-22.15,52.84a262,262,0,0,1-15.88,29.94c-6.34,10.29-13.72,19.95-20.69,29.85C478.69,496.85,475.32,501.39,472,506Z" style="fill:#424242"/><path d="M280,440h0Z" style="fill:#ececec"/><path d="M320,460h0Z" style="fill:#fdfdfd"/><path d="M320,420h0Z" style="fill:#fdfdfd"/><path d="M340,440h0Z" style="fill:#fdfdfd"/><rect x="380.01" y="399.97" width="0.01" height="0.01" style="fill:#fdfdfd"/><path d="M533.05,245.86l-.89-1-7.39-17c.09-2,.1-4,.29-6,.69-7.06,5.86-14.61,10.79-15.87-2.69,12.82-2.69,12.82,10.23,12.82,20.81,0,41.62,0,62.43,0a40.11,40.11,0,0,1,6.27,1c-4.28,3.82-5,8.75-3.85,13.93,1.27,5.72,6,7.34,11.07,8.22l2,3.73-51,.35Z" style="fill:#171717"/><path d="M477,271l-1.11-17.82c.7.8,1.81,1.51,2,2.41.85,3.78,1.42,7.61,2.09,11.42.21,8.66,1.48,17.23,7.65,23.68,5.68,5.94,12.45,10.83,18.49,16.45,8.22,7.66,16.63,15.21,24.15,23.53,5.34,5.91,13.24,7.25,19.37,2.28,5.51-4.47,11.47-8.39,17.34-12.39,3-2.05,6.76-3.25,9.34-5.71q20.07-19,39.6-38.61c3.13-3.13,5.47-7.14,7.76-11,3.62-6.07.75-13.28-6-13.48-1.91-.06-3.78-1.15-5.67-1.77h2c15.29,0,18,4.12,12,18l-5,7-19,20-22,20-6,4-13,8-6,5-4,5a11,11,0,0,0-1.56,1.23c-7.23,8-9.08,8.34-18.4,2.8-8.33-4.95-15.67-11-21.21-19.18-8.1-11.92-21.19-19.72-27.55-33.12-.18-.37-.84-.5-1.27-.74-.34-2.67-.67-5.33-1-8Z" style="fill:#888"/><path d="M621,275l5-7a35.82,35.82,0,0,0,3.61-4c4.88-7.28,3.08-12.66-5.37-14-6.63-1.06-13.48-.71-20.24-1h0l-5-1c1.27-.32,2.56-1,3.81-.9,8.27.49,16.51,1.35,24.78,1.65,7.32.27,10.8,4.61,5.81,13.35a87,87,0,0,1-12.6,17.24c-10.33,10.73-21.22,20.92-32.15,31.05-2.31,2.15-5.72,3.12-8.63,4.63l22-20Z" style="fill:#7f7f7f"/><path d="M636,263c-2.34,4.11-4.2,8.61-7.1,12.28a215.44,215.44,0,0,1-40.68,40A36.38,36.38,0,0,1,583,318c8.53-7.37,17.72-14.12,25.45-22.26C618.26,285.38,626.88,273.94,636,263Z" style="fill:#6a6a6a"/><path d="M533.05,245.86l39.94.3c0,.27,0,.54,0,.81l-3,1H534Z" style="fill:#7e7e7e"/><path d="M570,248l3-1,26,1,5,1Z" style="fill:#848484"/><path d="M561,327l13-8Z" style="fill:#7f7f7f"/><path d="M481,288c.43.24,1.09.37,1.27.74,6.36,13.4,19.45,21.2,27.55,33.12,5.54,8.16,12.88,14.23,21.21,19.18,9.32,5.54,11.17,5.15,18.4-2.8A11,11,0,0,1,551,337c-.33,1.66-.66,3.33-1,5-2.47,3.53-4.77,8.14-10.06,6.21-14.11-5.12-26.72-12.71-36-24.86-6.84-9-13.32-18.23-20-27.35Z" style="fill:#7f7f7f"/><path d="M484,296c6.64,9.12,13.12,18.37,20,27.35,9.26,12.15,21.87,19.74,36,24.86,5.29,1.93,7.59-2.68,10.06-6.21-1.19,8-5.65,10.25-13,7.06-14-6.08-26.88-13.71-37.81-24.42a31.2,31.2,0,0,1-5.11-6.7c-3.06-5.31-5.93-10.74-8.65-16.23C484.62,300,484.47,297.89,484,296Z" style="fill:#7c7c7c"/><path d="M671,219c-2.18-5.46-7.26-6.53-12.08-8H652c-1.59.66-3.12,1.64-4.78,1.91-3.59.6-7.28.65-10.87,1.25-6.73,1.13-11.28,6.44-10.74,12.22,1,10.74,3.55,13.54,12.49,13.62l7,.08,5,1,9.83-1.19C671.77,234.83,673.23,232.09,671,219Zm-12,17.83c-4.21.82-8.52,1.07-12.79,1.57-6.6.37-12.35-.33-15.11-7.64-2.14-5.64,1.25-13.73,7.14-14.65a97.6,97.6,0,0,1,20.13-1c6.55.35,10.18,4.72,10.33,10.59C668.86,230.44,664.48,235.76,659,236.81Z" style="fill:#8c8c8c"/><rect x="120" y="479.97" width="0.01" height="0.01" style="fill:#fdfdfd"/><path d="M120,440h0" style="fill:none"/><path d="M659.8,155c-7.33.08-13.7,4.91-13.73,10.42S652.45,176,659.58,176s11.34-3.62,11.25-9.74C670.71,158.78,666.94,154.94,659.8,155Zm4.89,11.06c-.38,3.63-2.27,6.37-6.22,6.67-3.38.26-7.36-3.64-7.34-6.82s4-7.4,7-7.51S665,162.84,664.69,166.08Z" style="fill:#a2a2a2"/><path d="M581,50V47c4.1.61,8.26.94,12.27,1.88C602.28,51,603,52.3,604,61.23c2.31,19.82,5,39.59,7.4,59.39,2.21,18.14,4.56,36.28,6.25,54.47.48,5.17-1,10.55-1.88,15.78C615.59,192,614,193,613,194c-4-17.33-8.07-34.63-11.88-52-6.54-29.86-12.9-59.76-19.35-89.65A23.26,23.26,0,0,0,581,50Z" style="fill:#8d8d8d"/><path d="M583,207c1.74-3.76,3.49-7.51,4.7-10.13-.11,4.36,3.64,5.66,8.67,5.13,5.88-.61,11.75-1.31,17.62-2,.33,1.33.66,2.67,1,4v4c-8.69.33-17.38.78-26.08.88C587,208.88,585,207.63,583,207Z" style="fill:#6d6d6d"/><path d="M583,207c2,.67,4,1.92,5.91,1.9,8.7-.1,17.39-.55,26.08-.88l2,6c-14.83,0-29.67.15-44.5-.14-2.85-.06-5.66-1.86-8.49-2.86Z" style="fill:#626262"/><path d="M535.85,206.05c-4.93,1.26-10.1,8.81-10.79,15.87-.19,2-.2,4-.29,6-2.41-4.8-1.75-9.7-.24-14.52,2.56-8.23,8.3-11,16.64-8.36,1.25.4,2.56.64,3.84.95l1,3Z" style="fill:#6a6a6a"/><path d="M667.85,185.66c-4.42-1.25-9.11-1.55-13.67-2.28,0,.22-.07.44-.1.66-2.66,0-5.34-.18-8,0-5.18.44-8.64,4-9.38,9.44-.83,6.08,1.14,11.16,6,12.3,8.22,1.94,16.66,3.56,25.07.61,5.44-1.91,8.19-5.39,8.16-10.1C675.91,191,673.44,187.25,667.85,185.66Zm4.49,11.13c-.38,2.64-2.71,5.54-5,7.24s-5.73,2.31-9,3.52c-4.56-1.43-9.36-2.36-13.62-4.41-6.47-3.13-6.7-10.59-.41-14.2,7.05-4.06,14.7-5,22.46-1.78A8.76,8.76,0,0,1,672.34,196.79Z" style="fill:#9c9c9c"/><path d="M576,258.72c-6-2.35-11.57-3-17.74-.14s-12.35,1.85-17.47-3.25a8.77,8.77,0,0,0-3.78-2.27c-8.29-2.12-13.2-7.95-17-15.08-6-8-4.34-16.89-1.89-25.38,3.49-12.07,8.93-15.61,21.6-15.63a57.15,57.15,0,0,0,9-.23c1.8-.28,4.26-1.31,4.88-2.7.51-1.13-.81-3.83-2.1-4.9A140.29,140.29,0,0,0,536.77,178c-9.38-5.94-15.69-5.43-24,1.87-7.88,6.89-15.05,14.64-23.21,21.15-9.67,7.71-10.31,17.87-9.86,28.73.21,5.08.26,10.16.38,15.24,0,.66,0,1.32,0,2,1.68,5.45,3.74,10.82,4.93,16.37,1.45,6.75,5,11.34,10.52,15.6,17.83,13.87,36.61,9.61,55,2.93,9.53-3.46,18.34-9.3,26.84-15C583.33,262.81,582.57,261.3,576,258.72Zm-41.23,11.2a17.84,17.84,0,0,0-3.53,3.52c-4.37,6.66-10.79,7.28-17.18,4.72-7.06-2.83-14.63-5.86-20-10.89-4.19-3.9-6.25-10.81-7.7-16.76-1.87-7.7-2.23-15.78-3.16-23.71-1.07-9.21,2.5-16.47,9.33-22.51,6.08-5.39,11.88-11.09,17.82-16.65,4.32-4,8.93-7.5,14.68-7.7,5.35.13,9.35,1.83,11.88,6.08,1.6,2.68,1.07,5.23-2.26,5.65-15.58,2-25.77,26.44-21.12,38.38a51.86,51.86,0,0,0,19.73,25C540.27,259.7,541,264.63,534.76,269.92Z" style="fill:#afafaf"/><path d="M480,247c1.68,5.45,3.74,10.82,4.93,16.37,1.45,6.75,5,11.34,10.52,15.6,17.83,13.87,36.61,9.61,55,2.93,9.53-3.46,18.34-9.3,26.84-15,6-4,5.25-5.55-1.33-8.13-6-2.35-11.57-3-17.74-.14s-12.35,1.85-17.47-3.25a8.77,8.77,0,0,0-3.78-2.27c-8.29-2.12-13.2-7.95-17-15.08h1q4.5,5,9,10c.47.46.87,1.15,1.44,1.35,10.83,3.81,21.33,10.19,33.43,4.29a5.92,5.92,0,0,1,3.42-.47c9.79,1.78,19.66,3.28,29.31,5.67,7,1.73,7.33,4.24,2.42,9.6-2.56,2.8-6,5.16-7.55,8.41-2.42,4.95-5.58,8.89-10.63,10.63q-24,8.31-48.25,15.91c-1.75.56-4.36-.27-6.1-1.26-7.52-4.27-14.8-9-22.29-13.28C495.47,283.2,486,277.44,482,266Q481,256.47,480,247Z" style="fill:#a9a9a9"/><path d="M480,247q1,9.5,2,19v4c-.67-1.67-1.33-3.35-2-5-1.47-12.53-2.35-25.17-4.59-37.57-2-11.21.92-19.7,9.49-27,8.33-7.12,16.09-14.9,24.1-22.39h2c-7.48,7.28-14.21,15.59-22.62,21.56-10.65,7.57-12,17.56-11.1,28.82.46,5.58,1.8,11.1,2.74,16.64C480,245.65,480,246.31,480,247Z" style="fill:#a0a0a0"/><path d="M517,173q8.5-6,17,0Z" style="fill:#a0a0a0"/><path d="M480,265c.67,1.67,1.33,3.35,2,5v2c1.37,3.84,2.18,8,4.24,11.45,5.21,8.75,14.26,13.23,22.3,18.82,8.33,5.79,16.8,11.4,24.77,17.67,11.71,9.21,9.76,10.83,22.83,2.59,5.75-3.63,13-5.27,17.93-9.69,11.82-10.67,22.71-22.37,33.84-33.8A146.31,146.31,0,0,0,618,267.28c3.24-4.14,2.81-9.27-1.2-11.2a38.61,38.61,0,0,0-12.2-4c-15.69-1.71-31.39-2.73-47.25-1.36-7.33.63-14.87-1.12-22.31-1.78l-2-1h37l34,1h0l8,1c1.89.62,3.76,1.71,5.67,1.77,6.77.2,9.64,7.41,6,13.48-2.29,3.85-4.63,7.86-7.76,11q-19.5,19.61-39.6,38.61c-2.58,2.46-6.32,3.66-9.34,5.71-5.87,4-11.83,7.92-17.34,12.39-6.13,5-14,3.63-19.37-2.28-7.52-8.32-15.93-15.87-24.15-23.53-6-5.62-12.81-10.51-18.49-16.45-6.17-6.45-7.44-15-7.65-23.68C480,266.32,480,265.64,480,265Z" style="fill:#909090"/><path d="M533,248l2,1c8,3.11,16.36,5.14,24.91,3.61,16.89-3,33.11-.25,49.11,4.84,6.73,2.13,7.08,5.52,2.13,10.75-9.47,10-18.55,20.42-28,30.46-3.15,3.33-6.58,6.84-10.6,8.82a110.5,110.5,0,0,1-20.95,7.89,23.21,23.21,0,0,1-20-3.55c-9.89-7-19.89-14-30.2-20.37-8.08-5-15.16-10.74-19.39-19.45v-6c3.95,11.47,13.46,17.23,23.2,22.86,7.49,4.32,14.77,9,22.29,13.28,1.74,1,4.35,1.82,6.1,1.26q24.23-7.64,48.25-15.91c5-1.74,8.21-5.68,10.63-10.63,1.59-3.25,5-5.61,7.55-8.41,4.91-5.36,4.56-7.87-2.42-9.6-9.65-2.39-19.52-3.89-29.31-5.67a5.92,5.92,0,0,0-3.42.47c-12.1,5.9-22.6-.48-33.43-4.29-.57-.2-1-.89-1.44-1.35Z" style="fill:#a1a1a1"/><path d="M120,420h0" style="fill:none"/><path d="M120,440h0Z" style="fill:#ececec"/><path d="M120,420h0Z" style="fill:#ececec"/><path d="M420,320h0Z" style="fill:#ececec"/><line x1="400.02" y1="339.98" x2="400" y2="339.97" style="fill:none"/><path d="M420,320h0Z" style="fill:#ececec"/><path d="M380,360h0Z" style="fill:#ececec"/><path d="M400,340h0Z" style="fill:#ececec"/><line x1="380.02" y1="359.98" x2="380" y2="359.97" style="fill:none"/><path d="M180,440h0Z" style="fill:#ececec"/><path d="M200,440h0Z" style="fill:#ececec"/><path d="M180,440h0Z" style="fill:#ececec"/><path d="M200,440h0Z" style="fill:#ececec"/><path d="M220,440h0Z" style="fill:#ececec"/><path d="M220,440h0Z" style="fill:#ececec"/><path d="M240,440h0Z" style="fill:#ececec"/><path d="M240,440h0Z" style="fill:#ececec"/><path d="M260,440h0Z" style="fill:#ececec"/><path d="M260,440h0Z" style="fill:#ececec"/><path d="M280,440h0Z" style="fill:#ececec"/><path d="M528.76,361c-15.08-8.43-30.6-16.07-45.89-24.12-7.88-4.15-15.4-3.52-21.67,2.59-14.15,13.8-28,27.91-41.8,42.05-7.76,8-15.18,16.24-22.78,24.36-15.45,16.5-30.59,33.32-46.53,49.34-6.87,6.9-12.41,14.46-17.8,22.43s-12.85,13-23.51,12.47c-16.57-.82-33.18-.79-49.77-1.13-13.27,1.67-26.53,3.44-39.82,5-7.71.89-15.45,1.37-23.18,2-4.31.33-8.63.53-12.92,1-13,1.52-26.12,2.8-39.05,4.95-4,.66-7.93,3.36-11.27,5.93-8,6.21-10.42,15.36-10.65,24.86-.39,16.48-.52,33,.08,49.47a92.72,92.72,0,0,0,4.06,22.44c2.63,9,9.1,13.81,18.36,13.11,10.39-.79,20.7-2.88,31-4.87,23-4.45,45.88-9.82,69-13.63,19.64-3.23,39.56-4.85,59.37-7.1,4.61-.53,9.26-.83,13.91-1,7.78-.32,15.57-.38,23.35-.74,4.14-.19,8.26-.73,12.38-1.19,5.22-.59,11.14.1,15.48-2.19,8.7-4.57,16.68-10.58,24.66-16.4,10.07-7.34,20.07-14.81,29.71-22.7,10.28-8.4,20.72-16.77,30-26.24a316.14,316.14,0,0,0,29.1-34c9-12.29,16.6-25.65,24.46-38.74,3.94-6.56,7.08-13.58,10.64-20.37a248.71,248.71,0,0,0,19-46.62C539.3,372.63,536.76,365.44,528.76,361Zm-.29,22.63a116.56,116.56,0,0,1-6.5,19.25c-7.78,16.94-15.4,34-24.34,50.33-6.59,12-14.07,24-23.14,34.17a129,129,0,0,1-39.76,30.42,214,214,0,0,0-43,27.86c-3.83,3.19-9,5-13.76,6.83-19.44,7.41-38.79,15.12-58.55,21.57-8.36,2.72-17.66,2.56-26.52,3.79q-40.77,5.65-81.52,11.36c-16.31,2.27-32.63,4.46-48.93,6.82-4.93.72-9.79,2-14.69,2.91C137.34,601,129.46,594.56,129,583.7c0-.34,0-.67,0-1q0-12.5,0-25c0-8.17-.06-16.33,0-24.49.08-8.75,7.28-17,16-18.36,32.55-5,65.12-9.84,97.67-14.88,12.82-2,25.57-4.53,38.41-6.4a28.53,28.53,0,0,1,11.25.8c8.35,2.27,16.49,5.29,24.8,7.74,8.72,2.58,11.18.23,15.27-7.76,6.73-13.16,11.87-27.21,24.31-37.16,9.52-7.61,17.11-17.64,25.54-26.61,1.71-1.81,3.41-3.65,5.1-5.48,15.37-16.59,30.58-33.35,46.18-49.72q13.43-14.08,28-27.09c5.72-5.13,13.32-5.48,20.42-3.7,15.61,3.92,29.13,12.06,41.42,22.26C528.64,371.25,530.13,377.23,528.47,383.61Z" style="fill:#474747"/><path d="M280,440h0Z" style="fill:#fdfdfd"/><path d="M300,420h0Z" style="fill:#fdfdfd"/><path d="M300,420h0Z" style="fill:#ececec"/><path d="M320,420h0Z" style="fill:#ececec"/><path d="M320,420h0Z" style="fill:#ececec"/><path d="M612,250l-8-1c6.76.27,13.61-.08,20.24,1,8.45,1.35,10.25,6.73,5.37,14a35.82,35.82,0,0,1-3.61,4c6-13.88,3.28-18-12-18Z" style="fill:#848484"/><path d="M621,275l-19,20Z" style="fill:#848484"/><path d="M570,248h0Z" style="fill:#848484"/><path d="M658.41,215.06a97.6,97.6,0,0,0-20.13,1c-5.89.92-9.28,9-7.14,14.65,2.76,7.31,8.51,8,15.11,7.64,4.27-.5,8.58-.75,12.79-1.57,5.44-1.05,9.82-6.37,9.7-11.16C668.59,219.78,665,215.41,658.41,215.06Zm-.54,16.8c-3.08,1.74-6.65,2.62-11.06,4.29-3.34-1.89-7.34-3.27-9.93-6-1.21-1.28-.69-6.55.75-7.54a34.23,34.23,0,0,1,12.46-5.07c2.24-.46,5.17,1.08,7.44,2.33C662.74,222.74,663,229,657.87,231.86Z" style="fill:#a2a2a2"/><line x1="120.02" y1="439.97" x2="120" y2="439.98" style="fill:none"/><path d="M651.13,165.93c0-3.1,4-7.4,7-7.51s6.94,4.42,6.61,7.66c-.38,3.63-2.27,6.37-6.22,6.67C655.09,173,651.11,169.11,651.13,165.93Z" style="fill:#b0b0b0"/><path d="M666.75,187.16c-7.76-3.2-15.41-2.28-22.46,1.78-6.29,3.61-6.06,11.07.41,14.2,4.26,2.05,9.06,3,13.62,4.41,3.31-1.21,6.66-1.72,9-3.52s4.6-4.6,5-7.24A8.76,8.76,0,0,0,666.75,187.16Zm0,10c-.43,3-5.6,6.59-9.64,6.59a34.12,34.12,0,0,1-5.26-1.23c-3.9-1.49-6.29-5.55-5.23-8.44,1.36-3.69,9.26-7.12,13.26-5.35C663.46,190.26,667.55,191.9,666.78,197.11Z" style="fill:#a7a7a7"/><path d="M533.22,255.08a51.86,51.86,0,0,1-19.73-25c-4.65-11.94,5.54-36.42,21.12-38.38,3.33-.42,3.86-3,2.26-5.65-2.53-4.25-6.53-6-11.88-6.08-5.75.2-10.36,3.66-14.68,7.7-5.94,5.56-11.74,11.26-17.82,16.65-6.83,6-10.4,13.3-9.33,22.51.93,7.93,1.29,16,3.16,23.71,1.45,5.95,3.51,12.86,7.7,16.76,5.4,5,13,8.06,20,10.89,6.39,2.56,12.81,1.94,17.18-4.72a17.84,17.84,0,0,1,3.53-3.52C541,264.63,540.27,259.7,533.22,255.08Zm-18.66,15.16a24.46,24.46,0,0,1-15.86-12.05c-2.95-5.11-.65-15.59,4-19.22,2.79-2.17,6.23-3,8.7-.47,5.59,5.65,10.67,11.8,15.84,17.85.66.78.59,2.19.7,2.65C527.89,266.45,521.16,271.85,514.56,270.24Z" style="fill:#b9b9b9"/><path d="M482,272c4.23,8.71,11.31,14.43,19.39,19.45,10.31,6.4,20.31,13.34,30.2,20.37a23.21,23.21,0,0,0,20,3.55,110.5,110.5,0,0,0,20.95-7.89c4-2,7.45-5.49,10.6-8.82,9.46-10,18.54-20.43,28-30.46,5-5.23,4.6-8.62-2.13-10.75-16-5.09-32.22-7.87-49.11-4.84-8.55,1.53-16.88-.5-24.91-3.61,7.44.66,15,2.41,22.31,1.78,15.86-1.37,31.56-.35,47.25,1.36a38.61,38.61,0,0,1,12.2,4c4,1.93,4.44,7.06,1.2,11.2A146.31,146.31,0,0,1,607.92,279c-11.13,11.43-22,23.13-33.84,33.8-4.9,4.42-12.18,6.06-17.93,9.69-13.07,8.24-11.12,6.62-22.83-2.59-8-6.27-16.44-11.88-24.77-17.67-8-5.59-17.09-10.07-22.3-18.82C484.19,280,483.38,275.82,482,272Z" style="fill:#9a9a9a"/><line x1="120.02" y1="419.98" x2="120" y2="419.97" style="fill:none"/><path d="M140,420h0Z" style="fill:#ececec"/><path d="M120,440h0" style="fill:none"/><path d="M120,420h0" style="fill:none"/><path d="M140,420h0" style="fill:none"/><path d="M420,320h0Z" style="fill:#fdfdfd"/><path d="M380,320h0Z" style="fill:#fdfdfd"/><path d="M380,360h0" style="fill:none"/><path d="M180,440h0Z" style="fill:#fdfdfd"/><path d="M200,440h0Z" style="fill:#fdfdfd"/><path d="M220,440h0Z" style="fill:#fdfdfd"/><path d="M240,440h0Z" style="fill:#fdfdfd"/><path d="M260,440h0Z" style="fill:#fdfdfd"/><path d="M129,557.71c0-8.17-.06-16.33,0-24.49.08-8.75,7.28-17,16-18.36,32.55-5,65.12-9.84,97.67-14.88,12.82-2,25.57-4.53,38.41-6.4a28.53,28.53,0,0,1,11.25.8c8.35,2.27,16.5,5.29,24.8,7.74,8.72,2.58,11.18.23,15.27-7.76,6.73-13.16,11.87-27.21,24.31-37.16,9.52-7.61,17.11-17.64,25.54-26.61,1.71-1.81,3.41-3.65,5.1-5.48,15.37-16.59,30.58-33.35,46.18-49.72q13.43-14.08,28-27.09c5.72-5.13,13.32-5.48,20.42-3.7,15.61,3.92,29.13,12.06,41.42,22.26,5.29,4.39,6.78,10.37,5.12,16.75a116.56,116.56,0,0,1-6.5,19.25c-7.78,16.94-15.4,34-24.34,50.33-6.59,12-14.07,24-23.14,34.17a129,129,0,0,1-39.76,30.42,214,214,0,0,0-43,27.86c-3.83,3.19-9,5-13.76,6.83-19.44,7.41-38.79,15.12-58.55,21.57-8.36,2.72-17.66,2.56-26.52,3.79q-40.77,5.65-81.52,11.36c-16.31,2.27-32.63,4.46-48.93,6.82-4.93.72-9.79,2-14.69,2.91-10.46,2-18.34-4.36-18.77-15.22,0-.34,0-.67,0-1Q129,570.2,129,557.71Z" style="fill:#515151"/><path d="M300,420h0Z" style="fill:#ececec"/><path d="M300,420h0Z" style="fill:#fdfdfd"/><path d="M320,420h0Z" style="fill:#fdfdfd"/><path d="M646.81,236.15c-3.34-1.89-7.34-3.27-9.93-6-1.21-1.28-.69-6.55.75-7.54a34.23,34.23,0,0,1,12.46-5.07c2.24-.46,5.17,1.08,7.44,2.33,5.21,2.86,5.43,9.1.34,12C654.79,233.6,651.22,234.48,646.81,236.15Z" style="fill:#b1b1b1"/><line x1="140.02" y1="419.97" x2="140" y2="419.98" style="fill:none"/><path d="M657.14,203.7a34.12,34.12,0,0,1-5.26-1.23c-3.9-1.49-6.29-5.55-5.23-8.44,1.36-3.69,9.26-7.12,13.26-5.35,3.55,1.58,7.64,3.22,6.87,8.43C666.35,200.07,661.18,203.7,657.14,203.7Z" style="fill:#b3b3b3"/><path d="M528,259c-.06,7.45-6.79,12.85-13.39,11.24a24.46,24.46,0,0,1-15.86-12.05c-2.95-5.11-.65-15.59,4-19.22,2.79-2.17,6.23-3,8.7-.47,5.59,5.65,10.67,11.8,15.84,17.85C527.91,257.13,527.84,258.54,528,259Z" style="fill:silver"/><path d="M140,420h0" style="fill:none"/><path d="M380,320h0Z" style="fill:#ececec"/><path d="M380,320h0Z" style="fill:#ececec"/></g></g></svg>