<svg xmlns="http://www.w3.org/2000/svg" width="17.487" height="20.67" viewBox="0 0 17.487 20.67">
  <g id="android" transform="translate(0 0)">
    <path id="Path_937" data-name="Path 937" d="M43.823,179.141a1.234,1.234,0,0,0-.907.372,1.219,1.219,0,0,0-.373.894v5.34a1.272,1.272,0,0,0,1.279,1.279,1.215,1.215,0,0,0,.9-.373,1.245,1.245,0,0,0,.366-.907v-5.34a1.272,1.272,0,0,0-1.267-1.267Z" transform="translate(-42.544 -172.445)" fill="#fff"/>
    <path id="Path_938" data-name="Path 938" d="M131.22,1.9,132.1.274a.164.164,0,0,0-.062-.248.172.172,0,0,0-.248.074l-.894,1.64a6.229,6.229,0,0,0-4.993,0L125.011.1a.172.172,0,0,0-.248-.074.163.163,0,0,0-.062.248l.882,1.627a5.445,5.445,0,0,0-2.136,1.907,4.815,4.815,0,0,0-.795,2.677h11.488a4.817,4.817,0,0,0-.795-2.677A5.468,5.468,0,0,0,131.22,1.9Zm-5.1,2.366a.466.466,0,0,1-.342.143.444.444,0,0,1-.335-.143.5.5,0,0,1,0-.683.446.446,0,0,1,.335-.143.483.483,0,0,1,.342.826Zm5.235,0a.445.445,0,0,1-.335.143.484.484,0,0,1,0-.969.446.446,0,0,1,.335.143.5.5,0,0,1,0,.683Z" transform="translate(-119.658 0)" fill="#fff"/>
    <path id="Path_939" data-name="Path 939" d="M123.971,193.721a1.356,1.356,0,0,0,1.366,1.366h.919l.013,2.82a1.234,1.234,0,0,0,.373.907,1.22,1.22,0,0,0,.894.373,1.272,1.272,0,0,0,1.279-1.279v-2.819h1.714v2.819a1.279,1.279,0,1,0,2.558,0v-2.819h.932a1.356,1.356,0,0,0,1.354-1.366V185.45h-11.4Z" transform="translate(-120.928 -178.516)" fill="#fff"/>
    <path id="Path_940" data-name="Path 940" d="M443.643,179.141a1.231,1.231,0,0,0-.894.366,1.214,1.214,0,0,0-.372.9v5.34a1.233,1.233,0,0,0,.372.907,1.22,1.22,0,0,0,.894.373,1.272,1.272,0,0,0,1.279-1.279v-5.34a1.214,1.214,0,0,0-.372-.9A1.246,1.246,0,0,0,443.643,179.141Z" transform="translate(-427.435 -172.445)" fill="#fff"/>
  </g>
</svg>
