<svg id="apple" xmlns="http://www.w3.org/2000/svg" width="17.225" height="20.67" viewBox="0 0 17.225 20.67">
  <path id="Path_935" data-name="Path 935" d="M51.733,133.79c-3.126-.018-5.711-6.267-5.711-9.45,0-5.2,3.982-6.338,5.516-6.338a6.456,6.456,0,0,1,2.081.5,4.727,4.727,0,0,0,1.188.334,3.754,3.754,0,0,0,.853-.271,6.95,6.95,0,0,1,2.57-.609h.006a5.311,5.311,0,0,1,4.408,2.181l.321.473-.463.342a3.8,3.8,0,0,0-1.867,3.145,3.548,3.548,0,0,0,2.022,3.281c.29.171.589.347.589.732,0,.251-2.048,5.648-5.021,5.648a4.106,4.106,0,0,1-1.7-.4A3.5,3.5,0,0,0,55.021,133a3.946,3.946,0,0,0-1.2.317,5.954,5.954,0,0,1-2.073.474Z" transform="translate(-46.022 -113.12)" fill="#fff"/>
  <path id="Path_936" data-name="Path 936" d="M259.1,0c.077,2.792-1.919,4.729-3.914,4.608A4.45,4.45,0,0,1,259.1,0Z" transform="translate(-246.576)" fill="#fff"/>
</svg>
