<svg xmlns="http://www.w3.org/2000/svg" width="45" height="45" viewBox="0 0 45 45">
  <g id="benefit5" transform="translate(-1 -1)">
    <path id="Path_6693" data-name="Path 6693" d="M42.371,27.129h-.726V23.5a3.633,3.633,0,0,0-3.629-3.629H27.129V14.79a5.085,5.085,0,0,0-4.355-5.023V5.355h1.452V3.177A2.18,2.18,0,0,0,22.048,1H6.081A2.18,2.18,0,0,0,3.9,3.177V5.355H5.355V9.768A5.085,5.085,0,0,0,1,14.79V36.565a5.086,5.086,0,0,0,3.206,4.718,2.155,2.155,0,0,0-.3,1.089v1.452a2.177,2.177,0,1,0,4.355,0V42.371a2.153,2.153,0,0,0-.134-.726h8.843v.726A3.633,3.633,0,0,0,20.6,46H42.371A3.633,3.633,0,0,0,46,42.371V30.758A3.633,3.633,0,0,0,42.371,27.129Zm2.177,3.629v7.984h-.726a.726.726,0,0,1-.726-.726V32.21a2.18,2.18,0,0,0-2.177-2.177H22.048a2.18,2.18,0,0,0-2.177,2.177v5.806a.726.726,0,0,1-.726.726h-.726V30.758A2.18,2.18,0,0,1,20.6,28.581H42.371A2.18,2.18,0,0,1,44.548,30.758ZM27.129,27.129v-2.9H37.29v2.9Zm-1.452,0h-2.9v-2.9h2.9Zm-2.9-6.513A3.614,3.614,0,0,0,21.323,23.5v.726H6.081a2.153,2.153,0,0,0-.726.134V15.516a1.453,1.453,0,0,1,1.452-1.452H21.323a1.453,1.453,0,0,1,1.452,1.452ZM6.806,26.4v2.9a.726.726,0,1,1-1.452,0V26.4a.726.726,0,1,1,1.452,0ZM5.355,31.35a2.153,2.153,0,0,0,.726.134,2.18,2.18,0,0,0,2.177-2.177V26.4a2.153,2.153,0,0,0-.134-.726h13.2v1.452H20.6a3.633,3.633,0,0,0-3.629,3.629v5.081H5.355Zm33.387-4.221v-2.9h1.452v2.9Zm1.318-4.355H22.908a2.174,2.174,0,0,1,2.044-1.452H38.016A2.174,2.174,0,0,1,40.06,22.774ZM21.323,9.71H19.871V5.355h1.452Zm-2.9-4.355V9.71H9.71V5.355ZM5.355,3.177a.726.726,0,0,1,.726-.726H22.048a.726.726,0,0,1,.726.726V3.9H5.355Zm2.9,2.177V9.71H6.806V5.355ZM6.081,11.161H22.048a3.633,3.633,0,0,1,3.629,3.629v5.081h-.726a3.626,3.626,0,0,0-.726.073V15.516a2.906,2.906,0,0,0-2.9-2.9H6.806a2.906,2.906,0,0,0-2.9,2.9V35.839H2.452V14.79a3.633,3.633,0,0,1,3.629-3.629Zm.726,31.21v1.452a.726.726,0,1,1-1.452,0V42.371a.726.726,0,1,1,1.452,0Zm-.726-2.177a3.636,3.636,0,0,1-3.556-2.9H16.968v2.9Zm36.29,4.355H20.6a2.18,2.18,0,0,1-2.177-2.177V40.194h.726a2.18,2.18,0,0,0,2.177-2.177V32.21a.726.726,0,0,1,.726-.726H40.919a.726.726,0,0,1,.726.726v5.806a2.18,2.18,0,0,0,2.177,2.177h.726v2.177A2.18,2.18,0,0,1,42.371,44.548Z" fill="#0089ff"/>
    <path id="Path_6694" data-name="Path 6694" d="M27,57h1.451v1.451H27Z" transform="translate(-7.129 -15.354)" fill="#0089ff"/>
    <path id="Path_6695" data-name="Path 6695" d="M57,57h1.451v1.451H57Z" transform="translate(-15.354 -15.354)" fill="#0089ff"/>
    <path id="Path_6696" data-name="Path 6696" d="M46.965,45H32.451A1.453,1.453,0,0,0,31,46.451V47.9a1.453,1.453,0,0,0,1.451,1.451H46.965A1.453,1.453,0,0,0,48.417,47.9V46.451A1.453,1.453,0,0,0,46.965,45ZM32.451,47.9V46.451H46.965V47.9Z" transform="translate(-8.222 -12.064)" fill="#0089ff"/>
    <path id="Path_6697" data-name="Path 6697" d="M22.062,21H10.451A1.453,1.453,0,0,0,9,22.451V23.9a1.453,1.453,0,0,0,1.451,1.451H22.062A1.453,1.453,0,0,0,23.514,23.9V22.451A1.453,1.453,0,0,0,22.062,21ZM10.451,23.9V22.451H22.062V23.9Z" transform="translate(-2.194 -5.484)" fill="#0089ff"/>
  </g>
</svg>
