<svg xmlns="http://www.w3.org/2000/svg" width="45" height="45" viewBox="0 0 45 45">
  <g id="benefit1" transform="translate(0 -0.5)">
    <path id="Path_6658" data-name="Path 6658" d="M89.422,103.738H88V92.928l.608-.089a30.1,30.1,0,0,0,6.947-1.891l.535,1.319a31.614,31.614,0,0,1-6.668,1.885Zm0,0" transform="translate(-80.285 -82.42)" fill="#0089ff"/>
    <path id="Path_6659" data-name="Path 6659" d="M190.582,406.689l-6.383-4.253.789-1.183,5.593,3.726,5.593-3.726.789,1.183Zm0,0" transform="translate(-168.082 -365.178)" fill="#0089ff"/>
    <path id="Path_6660" data-name="Path 6660" d="M408,120.156h1.422v10.193H408Zm0,0" transform="translate(-372.154 -109.034)" fill="#0089ff"/>
    <path id="Path_6661" data-name="Path 6661" d="M81.421,5.726a26.571,26.571,0,0,1-7.429-4.8L73.521.5l-.469.426A26.707,26.707,0,0,1,57.059,7.821L56,7.9v13.41A22.06,22.06,0,0,0,65.671,39.63l7.85,5.3,7.85-5.3a22.06,22.06,0,0,0,9.672-18.322V7.9l-1.057-.071a26.278,26.278,0,0,1-8.565-2.1Zm8.221,15.581A20.636,20.636,0,0,1,80.59,38.448l-7.069,4.778-7.069-4.778A20.636,20.636,0,0,1,57.4,21.307V9.221A28.112,28.112,0,0,0,73.521,2.4a27.9,27.9,0,0,0,7.35,4.631,27.682,27.682,0,0,0,8.77,2.189Zm0,0" transform="translate(-51.021)" fill="#0089ff"/>
    <path id="Path_6662" data-name="Path 6662" d="M128,134.624a11.379,11.379,0,1,0,11.379-11.354A11.366,11.366,0,0,0,128,134.624Zm18.49,6.939a9.94,9.94,0,0,1-14.223,0V140.7a.71.71,0,0,1,.539-.689l3.951-.987a2.452,2.452,0,0,0,1.91,1.219v2.9h1.422v-2.9a2.452,2.452,0,0,0,1.91-1.219l3.951.986a.71.71,0,0,1,.539.689Zm-6.4-6.23h-1.422l-1.422-1.084v-3.174h2.845v-1.419h-3.911a3.042,3.042,0,0,1,2.577-1.419H140.8a.71.71,0,0,1,.711.71v5.3Zm.711,1.241v1.579c-.009.126-.119.728-1.422.728s-1.414-.608-1.422-.71v-1.6l.234.178h2.377Zm8.534-1.951a9.849,9.849,0,0,1-1.565,5.322,2.124,2.124,0,0,0-1.474-1.312l-4.073-1.016v-2.125l.711-.54v-6.005a2.131,2.131,0,0,0-2.133-2.129h-2.046a4.459,4.459,0,0,0-4.333,3.376l-.221.882h1.622v3.877l.711.54v2.125l-4.074,1.016a2.125,2.125,0,0,0-1.473,1.312,9.944,9.944,0,1,1,18.348-5.322Zm0,0" transform="translate(-116.879 -111.856)" fill="#0089ff"/>
    <path id="Path_6663" data-name="Path 6663" d="M496,411.27h1.422V419.8H496Zm0,0" transform="translate(-452.422 -374.304)" fill="#0089ff"/>
    <path id="Path_6664" data-name="Path 6664" d="M464,443.27h1.422v5.689H464Zm0,0" transform="translate(-423.267 -403.459)" fill="#0089ff"/>
    <path id="Path_6665" data-name="Path 6665" d="M432,475.27h1.422v2.845H432Zm0,0" transform="translate(-394.112 -432.615)" fill="#0089ff"/>
    <path id="Path_6666" data-name="Path 6666" d="M0,411.27H1.422V419.8H0Zm0,0" transform="translate(0 -374.304)" fill="#0089ff"/>
    <path id="Path_6667" data-name="Path 6667" d="M32,443.27h1.422v5.689H32Zm0,0" transform="translate(-29.155 -403.459)" fill="#0089ff"/>
    <path id="Path_6668" data-name="Path 6668" d="M64,475.27h1.422v2.845H64Zm0,0" transform="translate(-58.311 -432.615)" fill="#0089ff"/>
  </g>
</svg>
