<svg xmlns="http://www.w3.org/2000/svg" viewBox="0 0 227.11 218.87"><title>Asset 1</title><g id="Layer_2" data-name="Layer 2"><g id="Layer_1-2" data-name="Layer 1"><path d="M224.73,100.18c-2.28-4.43-4.92-8.68-7.52-12.94-3.16-5.16-5.84-10.45-6.35-16.62-.46-5.64-1-11.26-1.59-16.89-.82-8.32-5.05-14.34-12.49-18a104.36,104.36,0,0,0-11.47-4.91,43.12,43.12,0,0,1-19.83-14.57,108.77,108.77,0,0,0-10.13-11A16.2,16.2,0,0,0,142.09.51a90.29,90.29,0,0,0-15.2,2.61A47.64,47.64,0,0,1,99.38,3C94.78,1.67,90,1,85.26,0a20.4,20.4,0,0,0-15,6.16A152.29,152.29,0,0,0,60,17.7,38.38,38.38,0,0,1,43.74,29.8c-4.66,1.8-9.28,3.72-13.76,5.9-6.14,3-10.47,7.69-11.89,14.56-.64,3.08-.91,6.24-1.26,9.38-.52,4.63-.75,9.3-1.47,13.89C14.3,80.3,10.71,86,6.75,91.38c-9,12.23-9,24.18.07,36.29,6,8.08,9.57,17.08,9.72,27.29,0,2,.25,4,.33,6,.43,11.39,5.27,19.76,16.28,24,2.48,1,4.89,2.12,7.41,3a43.52,43.52,0,0,1,20.73,15,96.14,96.14,0,0,0,9,10,19.94,19.94,0,0,0,18.85,5.47c4.07-.83,8.15-1.71,12.15-2.84a44,44,0,0,1,24.62.12c3.67,1.06,7.45,1.76,11.17,2.61,7.84,1.79,14.53-.43,20.08-6a94,94,0,0,0,8.26-9.36,44.36,44.36,0,0,1,21.19-15.19,88.78,88.78,0,0,0,11.8-5.36c6.16-3.27,9.63-8.6,10.61-15.46a110.51,110.51,0,0,0,1.14-11.92,44.48,44.48,0,0,1,7.23-23.53,138,138,0,0,0,7.3-12.49A19.54,19.54,0,0,0,224.73,100.18Zm-66.39,45.75c-4.13,8.57-11.14,14.45-19.53,18.64-15.67,7.81-31.75,8-47.92,1.85-13.38-5.09-20.6-17.73-18.8-31.78,1.47-11.61,13-21.39,23.57-22.55.12,3.06-1,4.71-3.56,5.59A45.34,45.34,0,0,0,86.56,120C76.55,125,72.38,135,76,145.56c2.71,7.93,7.79,14.12,15.54,17.37,13.49,5.64,27.24,6.2,40.62-.4,13-6.42,20.52-19.11,17.86-36.23a20.14,20.14,0,0,0-8.76-13.49c-3.34-2.36-6.72-4-11.11-2-2.48,1.12-5.5,1.31-8.3,1.43s-5.74,0-7.82-3.7c1.69-.93,3.21-2.3,4.93-2.61a54.22,54.22,0,0,1,10.41-.89,10,10,0,0,0,6.87-2.33c8.09-6.63,12.4-15.11,12.29-25.62-.1-9.08-5-15.27-14.22-17.43C118.65,56,105.7,60.53,95.61,73,90.28,79.64,87.22,87.35,85,95.45a10.75,10.75,0,0,1-1.8,4.14,10.16,10.16,0,0,1-.11-2.12c2.42-14.77,8.67-27.32,21.63-35.56C118,53.46,132.34,52.58,146.88,58c10.28,3.85,14.78,12.9,12.59,23.76a34.13,34.13,0,0,1-12.38,20.51l-4.93,3.92a14.77,14.77,0,0,0,2.31,1.47C163.31,114.3,164.58,133,158.34,145.93Zm-61.89,5.75c.85-10.61,1.5-21.25,3-31.77,2.24-15.62,5.14-31.13,7.77-46.69.08-.49.17-1,.3-1.47,1.92-7.44,4.68-9,12.61-7.29C117.32,74.54,114,84.14,112,94c-3.18,16.12-5.41,32.43-8.06,48.66-.67,4.1-1.33,8.21-2.16,12.28-.51,2.48-1.41,4.83-4.7,5.35C95.43,157.54,96.23,154.51,96.45,151.68Z"/><path d="M95.66,112.09c.13,3.06-1,4.71-3.56,5.59A46,46,0,0,0,86.56,120C76.56,125,72.38,135,76,145.56c2.71,7.93,7.79,14.12,15.54,17.37,13.5,5.64,27.24,6.2,40.62-.4,13-6.42,20.52-19.11,17.86-36.23a20.14,20.14,0,0,0-8.76-13.49c-3.34-2.36-6.72-4-11.1-2-2.49,1.12-5.51,1.31-8.31,1.42s-5.74,0-7.82-3.69c1.69-.93,3.22-2.3,4.93-2.61a54.29,54.29,0,0,1,10.41-.89,10,10,0,0,0,6.87-2.33c8.09-6.63,12.41-15.11,12.29-25.62-.09-9.08-5-15.27-14.22-17.43C118.66,56,105.71,60.53,95.61,73,90.28,79.64,87.22,87.35,85,95.45a10.93,10.93,0,0,1-1.81,4.14,9.51,9.51,0,0,1-.1-2.12c2.41-14.77,8.66-27.32,21.62-35.56,13.28-8.45,27.6-9.33,42.13-3.88,10.28,3.85,14.78,12.9,12.6,23.76a34.19,34.19,0,0,1-12.39,20.51l-4.92,3.92a14.3,14.3,0,0,0,2.3,1.47c18.85,6.61,20.11,25.29,13.87,38.24-4.13,8.57-11.14,14.45-19.53,18.64-15.66,7.81-31.74,8-47.92,1.85-13.38-5.09-20.59-17.73-18.8-31.78C73.57,123,85.11,113.25,95.66,112.09Z" style="fill:#fff"/><path d="M120.15,64.46C117.32,74.54,114,84.14,112,94c-3.17,16.12-5.41,32.43-8.06,48.66-.67,4.1-1.32,8.21-2.16,12.28-.5,2.48-1.41,4.83-4.7,5.35-1.65-2.78-.86-5.81-.63-8.64.84-10.61,1.49-21.25,3-31.77,2.24-15.62,5.14-31.13,7.77-46.69q.12-.73.3-1.47C109.45,64.31,112.21,62.72,120.15,64.46Z" style="fill:#fff"/></g></g></svg>