<svg xmlns="http://www.w3.org/2000/svg" width="12" height="13.046" viewBox="0 0 12 13.046">
  <g id="btn-svg2" transform="translate(-20.83 0.546)">
    <g id="Group_5679" data-name="Group 5679" transform="translate(26.054)">
      <g id="Group_5678" data-name="Group 5678">
        <path id="Path_6571" data-name="Path 6571" d="M219.529,5.816,213.776.076a.261.261,0,0,0-.37.369L218.975,6l-5.568,5.555a.261.261,0,0,0,.37.369l5.753-5.739A.261.261,0,0,0,219.529,5.816Z" transform="translate(-213.33)" stroke="#111" stroke-width="1"/>
      </g>
    </g>
    <g id="Group_5681" data-name="Group 5681" transform="translate(21.33)">
      <g id="Group_5680" data-name="Group 5680" transform="translate(0)">
        <path id="Path_6572" data-name="Path 6572" d="M27.529,5.816,21.776.076a.261.261,0,0,0-.37.369L26.975,6l-5.568,5.555a.261.261,0,0,0,.37.369l5.753-5.739A.261.261,0,0,0,27.529,5.816Z" transform="translate(-21.33)" stroke="#111" stroke-width="1"/>
      </g>
    </g>
  </g>
</svg>
