<svg xmlns="http://www.w3.org/2000/svg" width="44" height="35" viewBox="0 0 44 35">
  <g id="f-phone" transform="translate(0 -50.237)">
    <path id="Path_983" data-name="Path 983" d="M219.551,173.99v1.021a.638.638,0,0,0,1.276,0V173.99a.638.638,0,1,0-1.276,0Z" transform="translate(-200.677 -112.644)" fill="#fff"/>
    <path id="Path_984" data-name="Path 984" d="M344.448,173.99v1.021a.638.638,0,1,0,1.276,0V173.99a.638.638,0,1,0-1.276,0Z" transform="translate(-314.838 -112.644)" fill="#fff"/>
    <path id="Path_985" data-name="Path 985" d="M268.493,185.213a1.218,1.218,0,0,1-1.839,0,.638.638,0,0,0-.962.838,2.493,2.493,0,0,0,3.762,0,.638.638,0,0,0-.962-.838Z" transform="translate(-242.692 -123.296)" fill="#fff"/>
    <path id="Path_986" data-name="Path 986" d="M38.743,50.237a.638.638,0,1,0,0,1.276A3.81,3.81,0,0,1,42.7,55.035l-8.723,8.633h0L30.96,66.656a8.663,8.663,0,0,1-12.161,0L7.057,55.035a3.8,3.8,0,0,1,3.807-3.522h25.3a.638.638,0,1,0,0-1.276h-25.3a5.085,5.085,0,0,0-5.106,5.052h0v4.131A3.57,3.57,0,0,0,4.83,59.3a3.5,3.5,0,0,0-3.09,1.671,10.84,10.84,0,0,0-.72,10.481,26.091,26.091,0,0,0,3.857,5.972.649.649,0,0,0,.909.072.633.633,0,0,0,.073-.9A24.824,24.824,0,0,1,2.19,70.916a9.512,9.512,0,0,1-.9-4.054A9.884,9.884,0,0,1,2.918,61.49a2.265,2.265,0,0,1,1.912-.915,2.179,2.179,0,0,1,1.232.368,27.213,27.213,0,0,1,2.656,2.568,2.262,2.262,0,0,1,.214,2.981,4.571,4.571,0,0,0-.867,3.126c.021,1.146,1.94,5.449,6.658,7.326a4.374,4.374,0,0,0,4.215-.548,2.321,2.321,0,0,1,3.013.212c.384.38.726.71,1.028,1,1.593,1.54,1.931,1.9,1.943,2.85v.03a2.269,2.269,0,0,1-1.052,1.918,9.83,9.83,0,0,1-5.31,1.55c-1.794,0-3.591-.38-6.739-2.3a25.053,25.053,0,0,1-4.24-3.252.649.649,0,0,0-.911.017.633.633,0,0,0,.017.9,26.348,26.348,0,0,0,4.459,3.42c2.293,1.4,4.681,2.549,7.43,2.489a11.115,11.115,0,0,0,6-1.755,3.537,3.537,0,0,0,1.641-3.035A3.349,3.349,0,0,0,25.176,78H38.894A5.085,5.085,0,0,0,44,72.95h0V55.29h0a5.086,5.086,0,0,0-5.257-5.052ZM10.058,67.11a3.32,3.32,0,0,0,.623-1.985,3.516,3.516,0,0,0-1.053-2.516c-2.5-2.472-2.369-2.356-2.581-2.527V56.83l7.366,7.29L9.356,69.125a3.19,3.19,0,0,1,.7-2.015Zm28.837,9.617H23.909c-.521-.5-.817-.793-1.047-1.021a3.619,3.619,0,0,0-4.7-.33,3.073,3.073,0,0,1-2.961.385,10,10,0,0,1-5.472-5.2l5.593-5.535,2.562,2.536a9.962,9.962,0,0,0,13.984,0l2.562-2.536L42.7,73.2A3.8,3.8,0,0,1,38.894,76.727Zm3.817-5.317-7.366-7.29,7.366-7.29Z" transform="translate(0)" fill="#fff"/>
  </g>
</svg>
