<svg id="global" xmlns="http://www.w3.org/2000/svg" width="15.625" height="15.625" viewBox="0 0 15.625 15.625">
  <g id="Group_431" data-name="Group 431" transform="translate(0 0)">
    <path id="Path_930" data-name="Path 930" d="M13.337,2.288A7.812,7.812,0,0,0,2.288,13.337,7.812,7.812,0,0,0,13.337,2.288ZM6.331,1.076a10,10,0,0,0-.829.912A9.5,9.5,0,0,0,4.285,3.95H2.1A6.915,6.915,0,0,1,6.331,1.076ZM1.578,4.866H3.922a9.185,9.185,0,0,0-.463,2.489H.931A6.846,6.846,0,0,1,1.578,4.866ZM.931,8.27H3.459a9.184,9.184,0,0,0,.463,2.489H1.578A6.846,6.846,0,0,1,.931,8.27Zm1.17,3.4H4.285A9.5,9.5,0,0,0,5.5,13.636a9.988,9.988,0,0,0,.829.912A6.915,6.915,0,0,1,2.1,11.675Zm5.254,2.571a9,9,0,0,1-1.138-1.182A8.72,8.72,0,0,1,5.3,11.675H7.355Zm0-3.487H4.889A8.192,8.192,0,0,1,4.376,8.27H7.355Zm0-3.4H4.376A8.191,8.191,0,0,1,4.89,4.866H7.355Zm0-3.4H5.3a8.716,8.716,0,0,1,.892-1.362A9,9,0,0,1,7.355,1.38Zm7.339,3.4H12.165A9.184,9.184,0,0,0,11.7,4.866h2.344A6.845,6.845,0,0,1,14.694,7.355Zm-1.17-3.4H11.34a9.5,9.5,0,0,0-1.217-1.962,9.989,9.989,0,0,0-.829-.912A6.915,6.915,0,0,1,13.524,3.95ZM8.27,1.379A9,9,0,0,1,9.408,2.561a8.722,8.722,0,0,1,.914,1.389H8.27Zm0,3.487h2.465a8.191,8.191,0,0,1,.513,2.489H8.27Zm0,3.4h2.979a8.191,8.191,0,0,1-.514,2.489H8.27Zm0,5.974v-2.57h2.052a8.715,8.715,0,0,1-.892,1.362A9,9,0,0,1,8.27,14.244Zm1.024.3a10,10,0,0,0,.829-.912,9.5,9.5,0,0,0,1.217-1.962h2.184A6.915,6.915,0,0,1,9.294,14.548Zm4.753-3.789H11.7a9.185,9.185,0,0,0,.463-2.489h2.528A6.845,6.845,0,0,1,14.047,10.759Z" transform="translate(0 0)" fill="#0089ff"/>
  </g>
</svg>
