<?xml version="1.0" encoding="utf-8"?>
<!-- Generator: Adobe Illustrator 24.0.2, SVG Export Plug-In . SVG Version: 6.00 Build 0)  -->
<svg version="1.1" id="users" xmlns="http://www.w3.org/2000/svg" xmlns:xlink="http://www.w3.org/1999/xlink" x="0px" y="0px"
	 viewBox="0 0 15 15" style="enable-background:new 0 0 15 15;" xml:space="preserve">
<path id="Path_1" d="M12.8,9.7C12,8.9,11.02,8.28,9.95,7.91c1.97-1.36,2.48-4.05,1.12-6.03S7.02-0.59,5.04,0.76S2.57,4.82,3.92,6.79
	c0.3,0.44,0.68,0.82,1.12,1.12C2.03,8.96,0,11.81,0,15h1.17c0-3.49,2.83-6.33,6.33-6.33s6.33,2.83,6.33,6.33c0,0,0,0,0,0H15
	C15,13.01,14.21,11.1,12.8,9.7z M7.5,7.5c-1.75,0-3.16-1.42-3.16-3.16c0-1.75,1.42-3.16,3.16-3.16c1.75,0,3.16,1.42,3.16,3.16v0
	C10.66,6.08,9.25,7.5,7.5,7.5z"/>
</svg>
