<svg xmlns="http://www.w3.org/2000/svg" width="45" height="45" viewBox="0 0 45 45">
  <g id="benefit6" transform="translate(-1 -1)">
    <path id="Path_6698" data-name="Path 6698" d="M43.359,7.539h1.453V1H39V2.453h4.359Z" transform="translate(-10.424)" fill="#0089ff"/>
    <path id="Path_6699" data-name="Path 6699" d="M44.812,40H43.359v5.086H39v1.453h5.812Z" transform="translate(-10.424 -10.698)" fill="#0089ff"/>
    <path id="Path_6700" data-name="Path 6700" d="M17,40v6.539h5.812V45.086H18.453V40Z" transform="translate(-4.389 -10.698)" fill="#0089ff"/>
    <path id="Path_6701" data-name="Path 6701" d="M18.453,2.453h4.359V1H17V7.539h1.453Z" transform="translate(-4.389)" fill="#0089ff"/>
    <path id="Path_6702" data-name="Path 6702" d="M42.371,27H31.484v1.453h7.258V51.7H8.258V28.453h7.258V27H4.629A3.635,3.635,0,0,0,1,30.633v18.89a3.635,3.635,0,0,0,3.629,3.633H42.371A3.635,3.635,0,0,0,46,49.523V30.633A3.635,3.635,0,0,0,42.371,27ZM2.452,49.523V30.633a2.181,2.181,0,0,1,2.177-2.18H6.806V51.7H4.629A2.181,2.181,0,0,1,2.452,49.523Zm42.1,0a2.181,2.181,0,0,1-2.177,2.18H40.194V28.453h2.177a2.181,2.181,0,0,1,2.177,2.18Z" transform="translate(0 -7.156)" fill="#0089ff"/>
    <path id="Path_6703" data-name="Path 6703" d="M5,39H6.453v1.453H5Z" transform="translate(-1.094 -10.42)" fill="#0089ff"/>
    <path id="Path_6704" data-name="Path 6704" d="M5,43H6.453v5.812H5Z" transform="translate(-1.094 -11.521)" fill="#0089ff"/>
    <path id="Path_6705" data-name="Path 6705" d="M57,41h1.453v5.812H57Z" transform="translate(-15.359 -10.972)" fill="#0089ff"/>
    <path id="Path_6706" data-name="Path 6706" d="M57,33h1.453v1.453H57Z" transform="translate(-15.359 -8.775)" fill="#0089ff"/>
    <path id="Path_6707" data-name="Path 6707" d="M57,55h1.453v1.453H57Z" transform="translate(-15.359 -14.812)" fill="#0089ff"/>
    <path id="Path_6708" data-name="Path 6708" d="M13,51.343H40.563V31h-5.8v1.453h4.352V49.89H14.451V32.453H18.8V31H13Z" transform="translate(-3.281 -8.249)" fill="#0089ff"/>
    <path id="Path_6709" data-name="Path 6709" d="M32,53H42.9v1.453H32Z" transform="translate(-8.507 -14.265)" fill="#0089ff"/>
    <path id="Path_6710" data-name="Path 6710" d="M28,53h1.453v1.453H28Z" transform="translate(-7.404 -14.265)" fill="#0089ff"/>
    <path id="Path_6711" data-name="Path 6711" d="M20.527,22.437a2.907,2.907,0,0,0,2.9,2.906v7.992a2.166,2.166,0,0,0,3.626,1.613,2.156,2.156,0,0,0,1.451.567,2.18,2.18,0,0,0,2.176-2.18V25.343a2.907,2.907,0,0,0,2.9-2.906V19.531H40.11V18.078H33.54a6.549,6.549,0,0,0-3.855-5.254,4.352,4.352,0,1,0-5.26,0,6.549,6.549,0,0,0-3.855,5.254H14v1.453h6.527Zm1.451,0V19.531h1.451V23.89A1.453,1.453,0,0,1,21.978,22.437Zm6.527,11.625a.727.727,0,0,1-.725-.727v-10.9H26.33v10.9a.725.725,0,1,1-1.451,0v-13.8h4.352v13.8A.727.727,0,0,1,28.505,34.062Zm3.626-11.625a1.453,1.453,0,0,1-1.451,1.453V19.531h1.451ZM24.154,9.359a2.9,2.9,0,1,1,2.9,2.906A2.907,2.907,0,0,1,24.154,9.359Zm2.9,4.359a5.084,5.084,0,0,1,5.019,4.359H30.681V16.625H29.231v1.453H24.879V16.625H23.429v1.453H22.036A5.084,5.084,0,0,1,27.055,13.719Z" transform="translate(-3.555 -1.094)" fill="#0089ff"/>
  </g>
</svg>
