<?xml version="1.0" encoding="utf-8"?>
<!-- Generator: Adobe Illustrator 24.0.2, SVG Export Plug-In . SVG Version: 6.00 Build 0)  -->
<svg version="1.1" id="Layer_1" xmlns="http://www.w3.org/2000/svg" xmlns:xlink="http://www.w3.org/1999/xlink" x="0px" y="0px"
	 viewBox="0 0 1000 773" style="enable-background:new 0 0 1000 773;" xml:space="preserve">
<style type="text/css">
	.st0{fill:#0089FF;}
</style>
<g>
	<path class="st0" d="M648.94,483.51c-5.49,7.72-9.27,19.84-16.84,22.47c-24.41,8.48-50.03,14.1-75.51,19.72
		c-16.97,3.74-22.02,11.64-23.34,28.38c-4.42,58.63,9.97,113.81,29.46,168.58c3.6,10.12,8.71,20.71,8.2,30.9
		c-0.38,7.72-8.52,15.21-13.25,22.76c-6.94-4.86-17.85-8.48-20.12-14.8c-10.66-29.37-18.86-59.63-28.14-89.47
		c-3.03-9.65-6.81-19.13-10.22-28.73c-2.02,0.06-4.1,0.18-6.12,0.23c-11.23,35.81-21.45,71.97-34.44,107.26
		c-3.66,9.77-15.64,16.91-23.78,25.22c-3.41-11.41-12.11-24.11-9.4-34.11c16.34-60.1,39.93-118.49,34.7-182.63
		c-1.7-21.59-7.7-31.25-30.34-35.11c-22.58-3.8-45.04-9.71-66.3-17.55c-8.33-3.1-13.37-13.93-19.87-21.24
		c9.21-3.69,19.3-11.7,27.44-10.24c26.62,4.74,52.99,11.7,78.6,20.07c31.98,10.42,62.58,10.83,94.63-0.29
		c25.42-8.78,51.98-15.16,78.6-20.13C630.65,473.33,640.24,480.35,648.94,483.51z"/>
	<path class="st0" d="M474.7,287.19c-5.8,6.85-10.16,17.38-17.66,19.84c-25.55,8.48-52.61,12.93-78.1,21.42
		c-8.52,2.87-19.62,13.05-20.06,20.36c-2.08,35.58-0.95,71.33-0.95,111.71c-3.91,1.64-13.25,5.56-23.53,9.83
		c-3.28-8.54-6.81-17.5-13.69-34.99c-12.43,39.91-21.39,72.97-33.31,105.09c-5.24,14.22-1.2,42.48-29.9,34.7
		c-26.24-7.14-9.08-28.79-4.92-42.42c17.6-57.05,37.09-113.23,31.79-174.08c-1.58-18.26-5.8-28.26-26.18-32.18
		c-24.54-4.68-49.08-10.71-72.29-19.19c-7.63-2.81-11.35-14.98-16.84-22.88c8.83-2.98,18.42-9.71,26.43-8.31
		c23.53,4.04,47.19,9.71,69.52,17.79c37.91,13.69,74.44,14.28,112.41-0.06c22.14-8.37,45.86-14.16,69.45-17.79
		C455.21,274.72,465.37,283.15,474.7,287.19z"/>
	<path class="st0" d="M824.57,286.9c-8.58,7.61-17.1,15.45-25.99,22.76c-2.15,1.81-5.8,2.11-8.77,3.04
		c-26.24,8.37-70.4,11.7-75.13,26.16c-10.66,32.42-5.36,70.86,0.32,105.91c5.68,35.23,20.88,69.05,29.27,104.04
		c2.02,8.31-6.62,18.78-10.41,28.32c-7.57-6.26-19.24-11.23-22.08-19.02c-11.86-32.07-20.94-65.07-31.29-97.6
		c-1.96-6.2-4.98-12.05-9.02-21.71c-5.17,12.87-8.71,21.77-12.49,31.19c-10.28-4.1-20.06-8.02-27.32-10.88V333.42
		c-28.51-7.72-59.68-14.92-89.77-24.99c-9.46-3.16-15.96-13.93-23.85-21.24c11.23-3.34,22.39-6.73,33.69-10.01
		c0.76-0.23,1.96,0.59,2.9,0.94c77.78,29.61,155.25,31.66,233.72,0.76C797.57,275.31,812.39,283.91,824.57,286.9z"/>
	<path class="st0" d="M261.42,114.28c-80.62,22.82-81.06,22.41-78.35,100.24c0.57,15.21,4.35,30.25,6.69,45.29
		c-9.9,3.57-20.38,7.31-31.23,11.29c-3.22-8.19-6.69-17.2-13.44-34.52c-12.93,42.07-23.34,76.77-34.51,111.3
		c-4.35,13.4-0.69,36.86-27.32,29.43c-25.04-6.96-11.35-26.1-7.13-39.44c18.8-58.87,38.04-117.21,32.61-180.23
		c-1.51-18.2-7.63-25.92-25.17-29.84c-24.48-5.44-49.2-10.59-72.67-18.84C3.03,106.14-1.13,94.26-7,86.48
		c8.89-3.28,17.54-8.84,26.56-9.3c8.96-0.47,18.67,3.1,27.19,6.61c68,28.09,135.25,24.11,203.38-0.76
		c14.82-5.38,40.18-20.71,47.94,5.32C305.14,112.11,276.5,110,261.42,114.28z"/>
	<path class="st0" d="M1000,86.36c-4.86,7.49-7.95,19.31-14.89,21.71c-24.41,8.43-50.09,13.93-75.45,19.84
		c-17.35,4.04-23.59,12.05-25.23,30.08c-5.8,63.96,14.57,123.06,33.43,182.74c4.04,12.93,15.27,30.84-7.38,36.81
		c-21.83,5.73-23.28-13.05-27.44-27.09c-10.41-35.46-21.57-70.75-35.07-114.63c-6.69,17.44-10.16,26.45-13.37,34.88
		c-11.23-3.98-21.7-7.67-24.67-8.72c0-38.39,1.07-74.02-0.88-109.54c-0.38-7.61-9.97-18.61-17.98-21.42
		c-25.42-8.78-52.61-13.17-77.97-22c-8.2-2.81-13-14.16-19.3-21.59c9.53-3.51,19.05-9.77,28.58-9.77c11.04,0,22.33,4.8,32.99,8.78
		c61.88,23.06,123.39,23.35,185.15-0.53c11.54-4.45,23.91-8.6,36.15-9.19C984.23,76.36,992.18,82.91,1000,86.36z"/>
	<path class="st0" d="M650.46,88.65c-5.87,6.9-10.28,17.44-17.85,19.95c-24.48,8.19-49.96,14.04-75.32,19.66
		c-16.65,3.69-24.48,10.53-23.66,27.91c1.51,33.7,0.44,67.53,0.44,105.45c-3.97,1.52-12.55,4.74-23.03,8.72
		c-3.72-7.31-7.95-15.62-14.13-27.79c-5.11,10.18-9.02,17.96-13.63,27.03c-9.78-3.28-19.75-6.61-24.22-8.13
		c0-36.22-1.32-69.93,0.5-103.51c1.01-18.61-7.38-25.69-24.98-29.55c-24.35-5.44-48.95-10.94-72.23-19.25
		c-8.07-2.93-12.68-14.22-18.86-21.65c9.53-3.45,21.45-12.11,28.2-9.48c84.28,33,167.61,31.48,251.7-0.59
		C629.7,75.01,641.31,84.61,650.46,88.65z"/>
	<path class="st0" d="M182.19,50.84c-0.5,28.09-15.77,39.56-37.72,39.26c-22.65-0.35-36.65-14.28-35.58-36.1
		c1.01-20.07,13.5-32.12,36.21-31.95C168.81,22.23,181.56,33.58,182.19,50.84z"/>
	<path class="st0" d="M533.5,55.88c0,22.29-15.77,34.64-37.72,34.11c-21.76-0.59-36.08-13.34-36.4-37.92
		c3.47-19.02,15.96-30.95,39.74-29.9C521.7,23.17,533.44,35.75,533.5,55.88z"/>
	<path class="st0" d="M884.3,49.91c-1.14,26.98-14.76,40.43-37.09,40.26c-21.76-0.18-36.9-12.35-36.27-35.11
		c0.69-22.82,15.33-33.12,38.23-33.06C871.81,22,882.03,35.22,884.3,49.91z"/>
	<path class="st0" d="M322.3,288.65c-23.85-1.64-38.29-13.46-38.35-34.64c0-21.42,14.76-33.94,38.17-33.47
		c21.64,0.41,34.7,11.59,35.58,32.48C358.69,275.89,343.68,285.43,322.3,288.65z"/>
	<path class="st0" d="M709.19,253.66c0.06,20.77-13.69,33.59-38.17,35.23c-21.26-2.98-36.08-12.35-35.52-35.46
		c0.63-23.11,15.27-32.94,38.17-32.77C696.25,220.83,709.12,234.23,709.19,253.66z"/>
	<path class="st0" d="M532.11,454.31c-2.15,13.46-18.1,25.04-25.04,33.76c-32.8-3.57-48.51-13.58-47.44-36.05
		c1.01-21.07,12.74-33.12,38.23-32.77C524.41,419.67,535.14,435.53,532.11,454.31z"/>
	<path class="st0" d="M219.53,358.05c-0.19,6.61-4.1,13.17-6.31,19.78c-8.77-3.57-22.02-5.03-25.42-11.12
		c-7.76-13.93-10.66-30.19-16.15-47.34C205.21,319.66,220.35,332.07,219.53,358.05z"/>
	<path class="st0" d="M570.21,353.72c-0.13,8.37-4.86,16.68-7.44,24.99c-9.53-5.79-22.96-9.66-27.63-17.85
		c-6.88-12.11-7.63-27.27-11.35-42.66C550.47,320.37,570.59,327.27,570.21,353.72z"/>
	<path class="st0" d="M819.39,319.96c-4.1,16.15-5.87,31.89-12.68,45.41c-3.09,6.26-16.09,8.25-24.6,12.17
		c-3.03-6.79-8.52-13.58-8.64-20.48C773.15,331.19,788.29,318.55,819.39,319.96z"/>
	<path class="st0" d="M395.47,559.58c-0.19,6.03-6.75,15.51-12.11,16.68c-5.49,1.23-16.84-4.27-19.18-9.3
		c-7-15.51-10.91-32.24-16.21-49.09C381.66,517.27,396.48,532.08,395.47,559.58z"/>
	<path class="st0" d="M469.66,317.85c-4.16,16.03-5.55,30.08-11.73,41.96c-4.23,8.13-15.14,13.22-23.09,19.72
		c-4.29-8.78-12.68-17.79-12.18-26.33C424.18,328.91,428.84,326.45,469.66,317.85z"/>
	<path class="st0" d="M644.78,518.21c-4.92,16.03-8.14,32.01-15.08,46.4c-2.78,5.85-13.69,8.37-20.88,12.35
		c-3.91-6.96-11.1-13.93-11.1-20.95C597.72,529.44,613.68,516.98,644.78,518.21z"/>
</g>
</svg>
