<svg xmlns="http://www.w3.org/2000/svg" width="45" height="45" viewBox="0 0 45 45">
  <g id="benefit4" transform="translate(-0.001 -0.5)">
    <path id="Path_6679" data-name="Path 6679" d="M207.157,81.129a5.351,5.351,0,0,0-4.836,2.435.668.668,0,1,0,1.175.637,4.729,4.729,0,0,1,7.321,0,.668.668,0,1,0,1.175-.637,5.351,5.351,0,0,0-4.836-2.435Zm0,0" transform="translate(-184.534 -72.277)" fill="#0089ff"/>
    <path id="Path_6680" data-name="Path 6680" d="M181.681,43.23a.668.668,0,1,0,1.175-.637c-1.333-2.46-4.4-3.987-8-3.987s-6.664,1.528-8,3.987a.668.668,0,0,0,1.175.637c1.1-2.028,3.713-3.287,6.822-3.287S180.582,41.2,181.681,43.23Zm0,0" transform="translate(-152.236 -34.708)" fill="#0089ff"/>
    <path id="Path_6681" data-name="Path 6681" d="M129.543,7.037a.668.668,0,0,0,.907-.269C132.1,3.726,136,1.837,140.623,1.837s8.523,1.889,10.173,4.931a.668.668,0,0,0,1.175-.637C150.088,2.658,145.739.5,140.623.5s-9.465,2.158-11.349,5.63a.669.669,0,0,0,.269.906Zm0,0" transform="translate(-118.001 0)" fill="#0089ff"/>
    <path id="Path_6682" data-name="Path 6682" d="M383.607,193.66a1.74,1.74,0,1,0-1.74-1.74A1.741,1.741,0,0,0,383.607,193.66Zm0-2.143a.4.4,0,0,1,.4.4.4.4,0,1,1-.4-.4Zm0,0" transform="translate(-348.343 -170.027)" fill="#0089ff"/>
    <path id="Path_6683" data-name="Path 6683" d="M383.607,251.859a1.74,1.74,0,1,0,1.738,1.74A1.742,1.742,0,0,0,383.607,251.859Zm0,2.143a.4.4,0,1,1,.4-.4A.4.4,0,0,1,383.607,254Zm0,0" transform="translate(-348.343 -225.315)" fill="#0089ff"/>
    <path id="Path_6684" data-name="Path 6684" d="M354.48,222.759a1.74,1.74,0,1,0-1.74,1.74A1.742,1.742,0,0,0,354.48,222.759Zm-1.74.4a.4.4,0,1,1,.4-.4A.4.4,0,0,1,352.74,223.163Zm0,0" transform="translate(-320.186 -197.671)" fill="#0089ff"/>
    <path id="Path_6685" data-name="Path 6685" d="M414.448,221.02a1.74,1.74,0,1,0,1.74,1.74A1.742,1.742,0,0,0,414.448,221.02Zm0,2.143a.4.4,0,1,1,.4-.4A.4.4,0,0,1,414.448,223.163Zm0,0" transform="translate(-376.559 -197.672)" fill="#0089ff"/>
    <path id="Path_6686" data-name="Path 6686" d="M153.707,269.238a3.168,3.168,0,1,0,3.168,3.168A3.171,3.171,0,0,0,153.707,269.238Zm0,5a1.831,1.831,0,1,1,1.831-1.831A1.833,1.833,0,0,1,153.707,274.237Zm0,0" transform="translate(-137.337 -240.556)" fill="#0089ff"/>
    <path id="Path_6687" data-name="Path 6687" d="M44.7,145.9l-3.174-15.994a9.005,9.005,0,0,0-2.7-5.212,6.037,6.037,0,0,0-.871-.632v-.329a2.806,2.806,0,0,0-2.485-3.036H34a2.806,2.806,0,0,0-2.488,3.036v.465a3.575,3.575,0,0,0-1.2,1.261H23.949a.82.82,0,0,0,0,1.609h6.115v1.644a1.522,1.522,0,0,1-1.347,1.647H16.286a1.522,1.522,0,0,1-1.349-1.647v-1.644H20.9a.82.82,0,0,0,0-1.609H14.7a3.571,3.571,0,0,0-1.2-1.26v-.466a2.807,2.807,0,0,0-2.488-3.037H9.532a2.807,2.807,0,0,0-2.488,3.037v.329a6.092,6.092,0,0,0-.869.63,9,9,0,0,0-2.7,5.213L.3,145.9a10.638,10.638,0,0,0,.223,5.917,4.782,4.782,0,0,0,2.76,2.87,5.319,5.319,0,0,0,6.742-3.607l1.525-4.957c.2-.638.352-.719.353-.72.018-.005.137.014.364.216a5.263,5.263,0,0,0,7.935-.188H24.8a5.808,5.808,0,0,0,3.841,1.9,5,5,0,0,0,4.093-1.713c.255-.228.362-.217.363-.216s.157.081.354.719l1.522,4.958a5.483,5.483,0,0,0,5.114,3.9,4.624,4.624,0,0,0,1.632-.295,4.782,4.782,0,0,0,2.759-2.871A10.632,10.632,0,0,0,44.7,145.9ZM34,122.308h1.477a1.263,1.263,0,0,1,1.148,1.173,6.107,6.107,0,0,0-1.715-.25h-.027a6.488,6.488,0,0,0-2.043.331A1.283,1.283,0,0,1,34,122.308Zm-24.465,0h1.475a1.282,1.282,0,0,1,1.16,1.254,6.487,6.487,0,0,0-2.043-.331H10.1a6.106,6.106,0,0,0-1.719.25,1.264,1.264,0,0,1,1.15-1.173Zm31.8,30.843a4.055,4.055,0,0,1-5.124-2.634l-1.523-4.959c-.3-.956-.7-1.511-1.221-1.7a1.517,1.517,0,0,0-1.546.5c-.017.016-.034.033-.05.051-1.7,1.9-4.549,1.741-6.359-.362a.6.6,0,0,0-.454-.222h-5.1a.6.6,0,0,0-.454.222c-1.812,2.1-4.665,2.267-6.359.362a.71.71,0,0,0-.05-.051,1.518,1.518,0,0,0-1.548-.5c-.526.187-.925.743-1.218,1.7l-1.525,4.957a4.053,4.053,0,0,1-5.121,2.635c-2.043-.767-2.8-3.271-2.09-6.871l3.174-15.993c.573-2.888,1.846-4.277,3.114-4.923a.583.583,0,0,0,.151-.074,4.991,4.991,0,0,1,2.082-.451,5.242,5.242,0,0,1,2.452.586l.033.018a2.193,2.193,0,0,1,1.029.95v2.321a3.009,3.009,0,0,0,2.667,3.255H28.717a3.008,3.008,0,0,0,2.665-3.255v-2.321a2.174,2.174,0,0,1,1.007-.94.61.61,0,0,0,.093-.05,5.225,5.225,0,0,1,2.4-.565H34.9a4.989,4.989,0,0,1,2.079.452.594.594,0,0,0,.149.073c1.268.646,2.541,2.035,3.115,4.923l3.174,15.994c.715,3.6-.046,6.1-2.089,6.87Zm0,0" transform="translate(0 -109.483)" fill="#0089ff"/>
    <path id="Path_6688" data-name="Path 6688" d="M299.434,269.238a3.168,3.168,0,1,0,3.168,3.168A3.171,3.171,0,0,0,299.434,269.238Zm0,5a1.831,1.831,0,1,1,1.831-1.831A1.833,1.833,0,0,1,299.434,274.237Zm0,0" transform="translate(-270.286 -240.556)" fill="#0089ff"/>
    <path id="Path_6689" data-name="Path 6689" d="M67.243,197.961h-.2v-.2a2.051,2.051,0,1,0-4.1,0v.2h-.2a2.051,2.051,0,0,0,0,4.1h.2v.2a2.051,2.051,0,0,0,4.1,0v-.2h.2a2.051,2.051,0,0,0,0-4.1Zm0,2.765h-.872a.669.669,0,0,0-.669.668v.872a.714.714,0,1,1-1.428,0v-.872a.669.669,0,0,0-.669-.668h-.872a.714.714,0,0,1,0-1.428h.872a.669.669,0,0,0,.669-.669v-.872a.714.714,0,1,1,1.428,0v.872a.669.669,0,0,0,.669.669h.872a.714.714,0,0,1,0,1.428Zm0,0" transform="translate(-55.272 -174.508)" fill="#0089ff"/>
    <path id="Path_6690" data-name="Path 6690" d="M219.584,248.742h-.971a.668.668,0,0,0,0,1.337h.971a.668.668,0,0,0,0-1.337Zm0,0" transform="translate(-198.803 -222.724)" fill="#0089ff"/>
    <path id="Path_6691" data-name="Path 6691" d="M269.787,248.742h-.973a.668.668,0,1,0,0,1.337h.973a.668.668,0,0,0,0-1.337Zm0,0" transform="translate(-244.594 -222.724)" fill="#0089ff"/>
    <path id="Path_6692" data-name="Path 6692" d="M247.588,288.031h-.97a.669.669,0,1,0,0,1.337h.97a.669.669,0,1,0,0-1.337Zm0,0" transform="translate(-224.348 -257.975)" fill="#0089ff"/>
  </g>
</svg>
