<svg id="Layer_1" data-name="Layer 1" xmlns="http://www.w3.org/2000/svg" viewBox="0 0 413.08 108"><title>bimimi</title><path d="M609.9,455.14c-1.12-2.19-2.42-4.29-3.71-6.39a18.53,18.53,0,0,1-3.13-8.2c-.23-2.78-.51-5.56-.78-8.33a10.56,10.56,0,0,0-6.17-8.9,52.32,52.32,0,0,0-5.66-2.42,21.23,21.23,0,0,1-9.78-7.19,53.53,53.53,0,0,0-5-5.43,8,8,0,0,0-6.54-2.33,45.93,45.93,0,0,0-7.5,1.29,23.44,23.44,0,0,1-13.58-.05c-2.27-.66-4.64-1-7-1.49a10.06,10.06,0,0,0-7.4,3,72.4,72.4,0,0,0-5.09,5.7,18.93,18.93,0,0,1-8,6c-2.29.89-4.57,1.83-6.79,2.91a10,10,0,0,0-5.86,7.18c-.32,1.52-.45,3.08-.62,4.63-.26,2.29-.37,4.59-.73,6.86-.52,3.34-2.29,6.17-4.25,8.8-4.46,6-4.43,11.94,0,17.91a22.6,22.6,0,0,1,4.79,13.47c0,1,.13,2,.17,2.95.21,5.62,2.6,9.75,8,11.83,1.22.47,2.41,1,3.66,1.47a21.49,21.49,0,0,1,10.22,7.39,48.64,48.64,0,0,0,4.45,4.95,9.83,9.83,0,0,0,9.3,2.7c2-.41,4-.85,6-1.4a21.65,21.65,0,0,1,12.15.06c1.81.52,3.67.86,5.51,1.28a10.05,10.05,0,0,0,9.91-3,48.2,48.2,0,0,0,4.07-4.62,22,22,0,0,1,10.46-7.5,43.46,43.46,0,0,0,5.82-2.64,9.77,9.77,0,0,0,5.24-7.63,54.92,54.92,0,0,0,.56-5.88,21.9,21.9,0,0,1,3.57-11.61,70.37,70.37,0,0,0,3.6-6.17A9.63,9.63,0,0,0,609.9,455.14Zm-32.76,22.57a20.15,20.15,0,0,1-9.63,9.2c-7.74,3.85-15.67,3.95-23.65.91a14.37,14.37,0,0,1-9.28-15.68c.73-5.73,6.42-10.55,11.63-11.13a2.43,2.43,0,0,1-1.75,2.76,24.21,24.21,0,0,0-2.74,1.12,10,10,0,0,0-5.22,12.64,13.65,13.65,0,0,0,7.67,8.57c6.66,2.78,13.44,3.06,20.05-.2,6.42-3.16,10.12-9.43,8.81-17.87a9.94,9.94,0,0,0-4.32-6.66c-1.65-1.17-3.32-2-5.49-1a11.35,11.35,0,0,1-4.09.7c-1.36.06-2.83,0-3.86-1.82A9,9,0,0,1,557.7,458a26.83,26.83,0,0,1,5.14-.44,4.92,4.92,0,0,0,3.39-1.15,15.47,15.47,0,0,0,6.06-12.64c0-4.48-2.48-7.54-7-8.6-7.72-1.82-14.11.42-19.09,6.59A29.42,29.42,0,0,0,541,452.8a5.41,5.41,0,0,1-.89,2.05,4.65,4.65,0,0,1-.05-1.05c1.19-7.29,4.27-13.48,10.67-17.55s13.61-4.6,20.79-1.91c5.07,1.9,7.29,6.36,6.21,11.72a16.84,16.84,0,0,1-6.11,10.12l-2.43,1.94a7.24,7.24,0,0,0,1.14.72C579.6,462.1,580.22,471.32,577.14,477.71Zm-30.54,2.84c.42-5.24.74-10.49,1.49-15.68,1.1-7.7,2.54-15.36,3.83-23q.06-.36.15-.72c.95-3.67,2.31-4.46,6.22-3.6-1.39,5-3,9.71-4,14.59-1.57,8-2.67,16-4,24-.34,2-.66,4.06-1.07,6.06-.25,1.23-.7,2.39-2.32,2.64C546.1,483.44,546.5,482,546.6,480.55Z" transform="translate(-499.01 -405.7)"/><path d="M693.1,459.51c-4.05-2.66-9.59-1.5-12.38-5.92,3.19-2.92,6.71-5.52,9.43-8.78,3.84-4.62,2.92-9.79-2.43-12.57a33.5,33.5,0,0,0-11.81-3.43c-10.53-1.09-20.59,1.45-30,5.89A79.34,79.34,0,0,0,631.2,444c-2.36,1.83-4.09,4.84-5.35,7.65-2.05,4.55-.89,8.74,2.41,11.29a8.81,8.81,0,0,0,11.54-.15c3.87-3.31,7.06-7.42,10.43-11.28a11.85,11.85,0,0,0,1.44-3.23c-3.52,3-6.15,6.71-9.41,9.69a20.74,20.74,0,0,1-8.09,4.51c-3.42,1-4.92-.67-4.95-4.26,0-5.41,2.82-9.49,6.36-13.14,4.59-4.76,10.28-7.84,16.32-10.39a53.8,53.8,0,0,1,26.9-3.83c3.18.33,6.43,1.18,7.85,4.51s-.18,6.24-2.3,8.7c-4.32,5-8.94,9.15-16.46,8.7-3.28-.2-6.73,1.48-10,2.62a3.11,3.11,0,0,0-1.51,2.68c.18.77,1.6,1.53,2.6,1.73a8.66,8.66,0,0,0,4-.16,89,89,0,0,0,10.94-3.44c2.76-1.16,5-1.28,7.78,1.26-1.56.44-2.66.79-3.78,1.06a79.47,79.47,0,0,0-28,12.71,45.71,45.71,0,0,0-7.74,7c-3.27,3.75-2.75,7.6,1.58,10a20.9,20.9,0,0,0,8.95,2.59c11.79.49,21.67-4.58,30.48-11.84,5.85-4.82,9.73-10.64,5.66-18.75Zm-33.94-2.36c3.17-2.61,5.63-3.32,10.72-3.07C665.74,456.77,663.38,457.45,659.16,457.15Zm24.3,12.73c-7.76,11.21-18.48,17.49-32.1,18.61-2.53.21-5.27,0-6.63-2.53-1.53-2.8-.63-5.7,1.4-7.85a59.6,59.6,0,0,1,8.85-8c7.33-5.11,15.66-8,24.33-10a35.39,35.39,0,0,1,5.21-.4A10,10,0,0,1,683.46,469.88Z" transform="translate(-499.01 -405.7)"/><path d="M827.92,439.46c-.92-.71-3.19-.45-4.42.21a15.7,15.7,0,0,0-4.42,4c-4.7,5.74-8.59,12.12-9.93,19.38-1.2,6.48-5.29,10.05-10.14,13.34a15.19,15.19,0,0,1-3.47,1.14c2.17-7.43,6.56-12.14,12.78-15.75-2.78-2.28-5.29-2.4-7.57-.53s-3.85,4.12-5.94,6q-5,4.46-10.22,8.57c-.71.54-2,.32-3,.46l-.78-.91c1.46-2.5,2.86-5,4.41-7.49,1-1.52,1.87-3.18.16-4.39a5,5,0,0,0-4-.33,86.24,86.24,0,0,0-8,4.14c1.41-5.83,1.41-5.83-2.65-8-.66,1.5-1.33,3-2,4.48a23,23,0,0,1-11.54,11.9c-1.66.79-3.59,1.12-4.26-.84a7.78,7.78,0,0,1,.44-5c.43-1.07,2-1.62,3-2.54a30.64,30.64,0,0,0,3.75-4,2.89,2.89,0,0,0-.72-4.39c-1.06-.66-3-1.07-4-.52-5,2.94-8.19,7.32-8.35,13.32-.14,5.05,3.36,7.71,8.22,6.37a57.86,57.86,0,0,0,6-2.35c.57,1.38,1.15,2.79,2.17,5.22a35.88,35.88,0,0,1,16.47-15.38c-1.11,2.63-1.92,4.23-2.48,5.92a5.45,5.45,0,0,0,1.7,6.26c2,1.71,4,1.15,6,0,2.1-1.26,4.11-2.67,6.16-4,1.43,6.54,3.71,7.48,9.18,3.64,2.5-1.75,4.79-3.8,7.32-5.83,1.81,8.09,3.46,10.13,8.16,10.28-.24-.47-.42-.92-.68-1.33-3.88-6.29-3.27-13.19,1.39-18.82,3.61-4.36,7-8.89,10.4-13.42a10.43,10.43,0,0,0,2.2-4.41C829.37,442.39,828.92,440.23,827.92,439.46ZM757,461.88l1.14,1L754.36,467l-.81-.66Zm58.86-2.4c2.2-7.65,6.3-13.83,10.72-16.18C826.25,447.34,822.17,453.49,815.89,459.48Z" transform="translate(-499.01 -405.7)"/><path d="M907,473.36c-1.32.71-2.6,1.5-4,2.13-1.7.78-3.54,1.55-4.8-.64s-1.08-4.06,1.08-5.69a48.54,48.54,0,0,0,5.28-4.55c1.68-1.69,2.35-3.63.37-5.68a3.37,3.37,0,0,0-5.29.09c-2.35,2.51-5,5.11-6.26,8.19-2.48,6.14-7.68,8.49-13,10.75-2.67,1.14-4-.17-4-3.2,0-5.07,5.23-11.15,10.59-12.11l-.91,4.38c2.55-2.5,4.11-4.26,2.24-6.73-1.54-2-3.66-2.13-5.82-.94a11.92,11.92,0,0,0-3.33,2.15c-2.07,2.35-4,4.85-5.83,7.39-2.87,4-6.34,6.85-11.7,7.65,0-4.09,2.69-6.2,4-8.95.55-1.16.89-3.15.27-3.94s-2.78-1.11-3.86-.66c-3,1.27-5.81,3-8.7,4.59a24.62,24.62,0,0,0,1.13-3.67c.37-2.42-.5-4.11-3.34-4.72-3,8-7.29,14.45-16.17,16.46-.26-.92-.5-1.29-.4-1.52a23.28,23.28,0,0,1,1.33-2.64c1.85-3.13,1.86-3.13-1.85-5.61-5.19,3.1-8.33,9-14.52,11.07,1.11-6,5-9.82,9.88-12.78,2.56-1.56,5.36-2.92,8.07,1.16-.67-5.06-3.31-7.19-7-6.59-5.48.9-14,9.05-15.39,14.57A5,5,0,0,0,817,479c2,1.49,3.76.7,5.4-.68,2.11-1.78,4.2-3.58,6.35-5.41,3.28,5.85,5.28,6.36,10.87,3.1.82-.48,1.71-.86,2.57-1.29-.18,1.93-.39,3.88,2.39,5.19,3.37-6.34,8.39-10.8,15.49-14.14-1,2.79-2.28,4.74-2.34,6.73a7.18,7.18,0,0,0,2.06,5.1c1,.88,3.45.89,4.91.34,2.25-.84,4.2-2.48,6.29-3.78,3.27,7,6.35,7.93,13.21,3.94,2.57-1.5,5-3.29,7.43-4.94,4,6.05,7.6,6.75,13.65,2.71a20.39,20.39,0,0,0,2.21-2Zm-7.74-6.74.12-.11c.06-.24.13-.47.21-.7s.13-.34.21-.5.08-.2.13-.3a7,7,0,0,1,.37-.66,7.81,7.81,0,0,1,1.58-1.81,9.33,9.33,0,0,1,1.35-1l.87.84c-1.57,1.37-3.15,2.73-4.72,4.08,0,0,0,0,0,0a1.09,1.09,0,0,0-.05.17l-.25.23Z" transform="translate(-499.01 -405.7)"/><path d="M762.55,450c0,.29,0,.57,0,.86-2.15,0-4.3.05-6.45,0A4.12,4.12,0,0,0,752,453c-3.41,5.9-7,11.73-10.32,17.66a18.63,18.63,0,0,0-1.72,4.68c-.94,3.76-1.55,7.51,2.66,10.14a5,5,0,0,1-5.47-4.6,20.53,20.53,0,0,1,.63-8.77c1.65-4.86,4.08-9.46,6.21-14.15a13.4,13.4,0,0,0,1.56-5.11c-1.39.64-3.32.9-4.08,2-4.87,6.95-9.65,14-11.37,22.57-.65,3.27-.14,5.91,3.15,7.84-3.85-.29-5.64-2-6-5.75-.15-1.64.27-3.32.21-5,0-.57-.67-1.13-1-1.69-.12-.13-.23-.27-.35-.41,1.68-2.62,3.5-5.17,5-7.88,2-3.6,3.77-7.33,5.69-11.09l-4.89-.88c2.28-3.83,7.13-1.53,8.62-5.41,1.11-2.9,2.72-5.62,4.12-8.45,4.42,3.18,4.52,3.82,1.64,9.49,2.78.67,2.81.68,4.88-3.3,1-2,2-4.09,3-6.18,4.4,3.25,4.49,3.83,1.32,10.2Z" transform="translate(-499.01 -405.7)"/><path d="M723.73,469.89c2.82-4.9,2.86-9,.19-11.32-2.9-2.54-6.19-2-11,1.79l.61.69,1.52-.31-2.79,2.87c.11-.54.21-1.08.32-1.63l-.71-.63q-1.62,3-3.23,5.93c-.92,1.68-1.82,3.37-2.72,5.05l.53.6a11,11,0,0,1,1.7,1.87c2.12,3.73,4.55,4.22,8,2.65,2-.92,4.11-1.77,6.17-2.64l-.22-.27c-3.73-1.36-4.63,4.86-.63-1.41C722.21,472,723.07,471,723.73,469.89ZM714,476.82l-3.28-1.21c.15-.36.29-.72.44-1.09l3.19,1.42C714.23,476.23,714.12,476.53,714,476.82Zm4.41-3.64c-2.48,2.45-4.44.68-6.64-.78,1.42-4.48,5.5-6.24,8.94-9.56l-3.38-3.11c4.15-1.14,5.85-.08,5.64,3.73A16.18,16.18,0,0,1,718.41,473.18Z" transform="translate(-499.01 -405.7)"/><path d="M673.77,435.1c-10.5,9.32-20,18.75-24.18,33.45-1-1.63-2-2.51-2.08-3.43a8.73,8.73,0,0,1,1-3.8,104.29,104.29,0,0,1,18.72-27.43,27.35,27.35,0,0,1,3.14-2.42Z" transform="translate(-499.01 -405.7)"/><path d="M706.48,472.93c-2.39,1.74-4.7,3.62-7.22,5.15-1.91,1.16-4.1,1.49-6-.31s-1.78-3.95-.68-5.95c2.46-4.47,5.13-8.83,7.67-13.15,4.42,1.72,4.79,2.5,2.77,5.6-1.62,2.5-3.47,4.86-5.06,7.38a35.87,35.87,0,0,0-2,4.59c4.78.79,6.91-2.71,10-3.91Z" transform="translate(-499.01 -405.7)"/><path d="M711.34,449.08c-.39,3-3.48,2.83-5.4,4.08l-1-1c1.06-2.34,2.12-4.68,3.77-8.29C710,446.27,711.51,447.79,711.34,449.08Z" transform="translate(-499.01 -405.7)"/><path d="M912.09,470.13l-4.6,3.82-.54-.59,4.32-4.16Z" transform="translate(-499.01 -405.7)"/><path d="M726.36,472.81l-4,2-.22-.27L726,472.4C726.13,472.54,726.24,472.68,726.36,472.81Z" transform="translate(-499.01 -405.7)"/><path d="M713.56,461.05l-.95.93-.71-.63,1.05-1Z" transform="translate(-499.01 -405.7)"/><path d="M546.22,461a2.44,2.44,0,0,1-1.76,2.76,24.21,24.21,0,0,0-2.74,1.12,10,10,0,0,0-5.22,12.64,13.65,13.65,0,0,0,7.67,8.57c6.66,2.79,13.44,3.06,20.05-.2,6.42-3.17,10.12-9.43,8.81-17.88a10,10,0,0,0-4.32-6.65c-1.65-1.16-3.32-2-5.48-1a11.23,11.23,0,0,1-4.1.7c-1.37.06-2.83,0-3.86-1.82A9,9,0,0,1,557.7,458a26.83,26.83,0,0,1,5.14-.44,4.92,4.92,0,0,0,3.39-1.15,15.45,15.45,0,0,0,6.06-12.64c0-4.48-2.48-7.53-7-8.6-7.71-1.82-14.1.42-19.08,6.59A29.35,29.35,0,0,0,541,452.8a5.43,5.43,0,0,1-.89,2.05,4.65,4.65,0,0,1-.05-1.05c1.19-7.29,4.28-13.48,10.67-17.55,6.55-4.17,13.62-4.6,20.79-1.91,5.07,1.9,7.29,6.37,6.21,11.72a16.76,16.76,0,0,1-6.11,10.12l-2.43,1.94a7,7,0,0,0,1.14.72c10.18,4.81,9.92,12.48,6.85,18.87a20.21,20.21,0,0,1-9.64,9.2c-7.73,3.85-15.67,3.95-23.65.91a14.36,14.36,0,0,1-9.28-15.68C535.31,466.41,541,461.59,546.22,461Z" transform="translate(-499.01 -405.7)" style="fill:none"/><path d="M558.3,437.51c-1.4,5-3.06,9.71-4,14.59-1.56,8-2.67,16-4,24-.33,2-.65,4-1.06,6.05-.25,1.23-.7,2.39-2.32,2.64-.82-1.37-.43-2.86-.31-4.26.41-5.23.74-10.49,1.48-15.68,1.1-7.7,2.54-15.36,3.83-23q.06-.36.15-.72C553,437.44,554.38,436.65,558.3,437.51Z" transform="translate(-499.01 -405.7)" style="fill:none"/><path d="M659.16,457.16c3.17-2.62,5.63-3.33,10.72-3.08C665.74,456.77,663.38,457.45,659.16,457.16Z" transform="translate(-499.01 -405.7)" style="fill:none"/><path d="M826.61,443.3c-.37,4-4.44,10.19-10.73,16.18C818.09,451.84,822.18,445.66,826.61,443.3Z" transform="translate(-499.01 -405.7)" style="fill:none"/><path d="M758.17,462.89,754.35,467l-.8-.66,3.48-4.48Z" transform="translate(-499.01 -405.7)" style="fill:none"/><polygon points="292.24 68.01 292.38 67.82 292.18 67.95 292.24 68.01"/><polygon points="262.25 70.02 262.45 69.71 262.19 69.95 262.25 70.02"/><path d="M899.28,466.69a7.89,7.89,0,0,1,3.9-5.1l.86.84-4.83,4.19Z" transform="translate(-499.01 -405.7)" style="fill:none"/><polygon points="400.2 60.92 400.01 61.22 400.27 60.99 400.2 60.92"/><path d="M842.26,474.73l.13-.33-.19.27Z" transform="translate(-499.01 -405.7)"/><path d="M853.25,467.64l0,.06Z" transform="translate(-499.01 -405.7)"/><path d="M717.33,459.73h0l-.05-.06Z" transform="translate(-499.01 -405.7)"/><path d="M714,476.82l-3.28-1.21.43-1.08,3.2,1.41Z" transform="translate(-499.01 -405.7)"/><path d="M712.61,462l.95-.94,1.68-.34-.06-.07-2.94,3,0,0Z" transform="translate(-499.01 -405.7)"/><path d="M715.24,460.71l2.08-1-.05-.06-2.09,1Z" transform="translate(-499.01 -405.7)"/><polygon points="213.24 57.95 213.1 58.08 213.26 57.97 213.24 57.95"/></svg>