<svg id="chrome" xmlns="http://www.w3.org/2000/svg" width="17.225" height="17.226" viewBox="0 0 17.225 17.226">
  <circle id="Ellipse_463" data-name="Ellipse 463" cx="2.756" cy="2.756" r="2.756" transform="translate(5.841 5.841)" fill="#fff"/>
  <path id="Path_945" data-name="Path 945" d="M64.424,7.485a3.869,3.869,0,0,1,3.81-2.924H76a8.324,8.324,0,0,0-1.623-2.135,8.984,8.984,0,0,0-12.279,0q-.237.226-.452.465Z" transform="translate(-59.649 0)" fill="#fff"/>
  <path id="Path_946" data-name="Path 946" d="M9.408,123.453a3.719,3.719,0,0,1-4.359-1.7l-.013-.022L1.359,115.36a8.285,8.285,0,0,0,5.4,12.689Z" transform="translate(0 -110.964)" fill="#fff"/>
  <path id="Path_947" data-name="Path 947" d="M244.219,171a3.713,3.713,0,0,1,.707,4.627l-.01.019-3.678,6.37c.158.009.318.014.477.014A8.29,8.29,0,0,0,249.531,171Z" transform="translate(-232.771 -164.804)" fill="#fff"/>
</svg>
