<svg xmlns="http://www.w3.org/2000/svg" width="41.577" height="35" viewBox="0 0 41.577 35">
  <g id="f-chat" transform="translate(0 -40.499)">
    <path id="Path_999" data-name="Path 999" d="M289.63,275.271h8.328a.609.609,0,0,0,0-1.218H289.63a.609.609,0,1,0,0,1.218Z" transform="translate(-265.551 -214.588)" fill="#fff"/>
    <path id="Path_1000" data-name="Path 1000" d="M289.63,322.842h8.328a.609.609,0,0,0,0-1.218H289.63a.609.609,0,1,0,0,1.218Z" transform="translate(-265.551 -258.296)" fill="#fff"/>
    <path id="Path_1001" data-name="Path 1001" d="M289.63,370.414h8.328a.609.609,0,0,0,0-1.218H289.63a.609.609,0,1,0,0,1.218Z" transform="translate(-265.551 -302.005)" fill="#fff"/>
    <path id="Path_1002" data-name="Path 1002" d="M113.536,104.721h-8.328a.609.609,0,0,0,0,1.218h8.328a.609.609,0,0,0,0-1.218Z" transform="translate(-96.105 -59.007)" fill="#fff"/>
    <path id="Path_1003" data-name="Path 1003" d="M114.145,152.9a.609.609,0,0,0-.609-.609h-8.328a.609.609,0,0,0,0,1.218h8.328A.609.609,0,0,0,114.145,152.9Z" transform="translate(-96.105 -102.715)" fill="#fff"/>
    <path id="Path_1004" data-name="Path 1004" d="M105.208,199.864a.609.609,0,0,0,0,1.218h4.164a.609.609,0,1,0,0-1.218Z" transform="translate(-96.105 -146.424)" fill="#fff"/>
    <path id="Path_1005" data-name="Path 1005" d="M31.954,53.921H26.229a9.465,9.465,0,0,0,.632-3.42v-.389A9.629,9.629,0,0,0,17.238,40.5H13.907a.609.609,0,1,0,0,1.218h3.331a8.41,8.41,0,0,1,8.405,8.4V50.5a8.255,8.255,0,0,1-.733,3.42h-.573A9.632,9.632,0,0,0,15.91,58.9H7.786a.977.977,0,0,0-.566.139L4.247,60.562l.166-3.083a.633.633,0,0,0-.226-.587A8.389,8.389,0,0,1,1.218,50.5v-.389a8.41,8.41,0,0,1,8.405-8.4h1.471a.609.609,0,1,0,0-1.218H9.623A9.629,9.629,0,0,0,0,50.113V50.5a9.6,9.6,0,0,0,3.185,7.132l-.193,3.589a.783.783,0,0,0,.3.711.73.73,0,0,0,.442.144,1.019,1.019,0,0,0,.353-.068.6.6,0,0,0,.067-.03l3.623-1.86.008,0h7.559a9.557,9.557,0,0,0-.63,3.42v.391a9.628,9.628,0,0,0,9.623,9.611H25.43a.609.609,0,0,0,0-1.218H24.337a8.409,8.409,0,0,1-8.405-8.393v-.391a8.337,8.337,0,0,1,.855-3.688.607.607,0,0,0,.069-.138,8.415,8.415,0,0,1,7.481-4.57h7.617a8.41,8.41,0,0,1,8.405,8.4v.391a8.388,8.388,0,0,1-2.976,6.393l-.01.009a.633.633,0,0,0-.211.576l.168,3.082-2.952-1.514-.018-.01a.962.962,0,0,0-.56-.143H28.243a.609.609,0,1,0,0,1.218h5.544l0,0,3.63,1.862a.6.6,0,0,0,.07.03,1.026,1.026,0,0,0,.352.067.731.731,0,0,0,.441-.142.786.786,0,0,0,.3-.708l-.2-3.594a9.6,9.6,0,0,0,3.187-7.13v-.391a9.629,9.629,0,0,0-9.623-9.614Z" fill="#fff"/>
  </g>
</svg>
