<svg xmlns="http://www.w3.org/2000/svg" width="15.624" height="15.62" viewBox="0 0 15.624 15.62">
  <g id="key" transform="translate(0 -0.067)">
    <g id="Group_440" data-name="Group 440" transform="translate(9.396 4.52)">
      <g id="Group_439" data-name="Group 439" transform="translate(0 0)">
        <circle id="Ellipse_461" data-name="Ellipse 461" cx="1" cy="1" r="1" fill="#0089ff"/>
      </g>
    </g>
    <g id="Group_442" data-name="Group 442" transform="translate(0 0.067)">
      <g id="Group_441" data-name="Group 441" transform="translate(0 0)">
        <path id="Path_934" data-name="Path 934" d="M15.455,5.129a8.9,8.9,0,0,0-1.92-3.019,8.7,8.7,0,0,0-3-1.882,2.454,2.454,0,0,0-2.6.552L5.54,3.165a2.442,2.442,0,0,0-.51,2.707c.126.283.263.56.409.827L.179,11.96A.61.61,0,0,0,0,12.391v2.685a.61.61,0,0,0,.61.61H3.3a.61.61,0,0,0,.61-.61v-1.1H5a.61.61,0,0,0,.61-.61v-1.1h1.1a.61.61,0,1,0,0-1.221H5a.61.61,0,0,0-.61.61v1.1H3.3a.61.61,0,0,0-.61.61v1.1H1.221V12.644L6.633,7.232a.61.61,0,0,0,.09-.748,9.877,9.877,0,0,1-.577-1.107A1.215,1.215,0,0,1,6.4,4.03L8.8,1.645A1.231,1.231,0,0,1,10.1,1.368a7.472,7.472,0,0,1,2.571,1.607,7.679,7.679,0,0,1,1.645,2.6,1.212,1.212,0,0,1-.274,1.3L11.62,9.292a1.229,1.229,0,0,1-1.343.262,7.922,7.922,0,0,1-1.1-.56.61.61,0,0,0-.639,1.04,9.147,9.147,0,0,0,1.268.647,2.446,2.446,0,0,0,2.673-.524l2.426-2.414A2.432,2.432,0,0,0,15.455,5.129Z" transform="translate(0 -0.067)" fill="#0089ff"/>
      </g>
    </g>
  </g>
</svg>
