<svg id="newsletter" xmlns="http://www.w3.org/2000/svg" width="18" height="18" viewBox="0 0 18 18">
  <path id="Shape" d="M21.845,18.889a6.661,6.661,0,0,1-1.99-.314,3.009,3.009,0,0,1-2-2.278,3.457,3.457,0,0,1,1.134-3.169q.152-.148.317-.284a3.839,3.839,0,0,1,3.5-.754,2.927,2.927,0,0,1,2.035,2.692,2.773,2.773,0,0,1-.648,1.96,1.524,1.524,0,0,1-1.49.547.861.861,0,0,1-.553-.384.818.818,0,0,1-.079-.636c.263-1,.531-2.509.534-2.524a.3.3,0,1,1,.593.1c-.011.063-.275,1.554-.545,2.574a.217.217,0,0,0,.013.171.268.268,0,0,0,.175.108.936.936,0,0,0,.9-.357,2.168,2.168,0,0,0,.5-1.532,2.33,2.33,0,0,0-1.613-2.148,3.224,3.224,0,0,0-2.932.643c-.1.08-.191.164-.281.252a2.9,2.9,0,0,0-.964,2.615A2.439,2.439,0,0,0,20.039,18c1.413.451,3.443.5,4.513-.825a.3.3,0,0,1,.47.377A3.938,3.938,0,0,1,21.845,18.889Z" transform="translate(-12.472 -8.671)" fill="#fff"/>
  <path id="Shape-2" data-name="Shape" d="M24.567,20.83a1.385,1.385,0,0,1-.879-.3,1.7,1.7,0,0,1-.432-1.814,2.76,2.76,0,0,1,.219-.526A2.47,2.47,0,0,1,24.51,17.12a1.424,1.424,0,0,1,1.676.27,2.255,2.255,0,0,1,.48.827.3.3,0,0,1-.567.2,1.681,1.681,0,0,0-.348-.613.816.816,0,0,0-.974-.145,1.888,1.888,0,0,0-.773.823,2.157,2.157,0,0,0-.17.408,1.122,1.122,0,0,0,.232,1.171,1.077,1.077,0,0,0,1.284-.125,3.359,3.359,0,0,0,.637-.775.3.3,0,1,1,.512.318,3.955,3.955,0,0,1-.754.912A1.851,1.851,0,0,1,24.567,20.83Z" transform="translate(-16.224 -12.177)" fill="#fff"/>
  <path id="Shape-3" data-name="Shape" d="M17.1,32.275H.9a.9.9,0,0,1-.9-.9V20.3a.3.3,0,0,1,.492-.23l7.361,6.105a1.8,1.8,0,0,0,2.295,0l7.36-6.1A.3.3,0,0,1,18,20.3V31.377a.9.9,0,0,1-.9.9ZM.6,20.937V31.377a.3.3,0,0,0,.3.3H17.1a.3.3,0,0,0,.3-.3V20.937l-6.869,5.7a2.407,2.407,0,0,1-3.061,0Z" transform="translate(0 -14.275)" fill="#fff"/>
  <path id="Shape-4" data-name="Shape" d="M.3,16.149A.3.3,0,0,1,.127,15.6L2.838,13.68a.3.3,0,0,1,.348.492L.475,16.093a.3.3,0,0,1-.174.055Z" transform="translate(0 -9.84)" fill="#fff"/>
  <path id="Shape-5" data-name="Shape" d="M52.018,16.149a.3.3,0,0,1-.174-.055l-2.711-1.922a.3.3,0,0,1,.348-.492L52.192,15.6a.3.3,0,0,1-.174.547Z" transform="translate(-34.32 -9.84)" fill="#fff"/>
  <path id="Shape-6" data-name="Shape" d="M25.628,3.106a.3.3,0,0,1-.174-.055l-1.44-1.021a1.81,1.81,0,0,0-2.32-.014L20.236,3.05a.3.3,0,0,1-.349-.492l1.44-1.021a2.4,2.4,0,0,1,3.054.014L25.8,2.559a.3.3,0,0,1-.175.547Z" transform="translate(-13.845 -0.996)" fill="#fff"/>
  <path id="Shape-7" data-name="Shape" d="M.951,45.809a.3.3,0,0,1-.193-.533l6.874-5.712a.3.3,0,1,1,.385.463L1.143,45.739a.3.3,0,0,1-.192.07Z" transform="translate(-0.454 -27.972)" fill="#fff"/>
  <path id="Shape-8" data-name="Shape" d="M41.7,45.809a.3.3,0,0,1-.192-.07l-6.874-5.712a.3.3,0,1,1,.385-.463l6.874,5.712a.3.3,0,0,1-.193.533Z" transform="translate(-24.197 -27.972)" fill="#fff"/>
  <path id="Shape-9" data-name="Shape" d="M21.278,13.073a.3.3,0,0,1-.3-.3V6.6c0,.006-.013,0-.033,0H9.632a.048.048,0,0,0-.036.013l0,6.156a.3.3,0,1,1-.6,0V6.6A.618.618,0,0,1,9.632,6H20.946a.618.618,0,0,1,.632.6v6.169A.3.3,0,0,1,21.278,13.073Z" transform="translate(-6.289 -4.492)" fill="#fff"/>
</svg>
