<svg id="paper" xmlns="http://www.w3.org/2000/svg" width="21" height="21" viewBox="0 0 21 21">
  <path id="Shape" d="M22.516,20.039a7.765,7.765,0,0,1-2.319-.366,3.508,3.508,0,0,1-2.33-2.656,4.03,4.03,0,0,1,1.322-3.694q.178-.173.369-.332a4.476,4.476,0,0,1,4.075-.879,3.412,3.412,0,0,1,2.373,3.138,3.233,3.233,0,0,1-.756,2.285,1.776,1.776,0,0,1-1.737.638,1,1,0,0,1-.645-.448.953.953,0,0,1-.093-.741c.307-1.161.619-2.925.622-2.943a.351.351,0,1,1,.692.122c-.013.073-.32,1.811-.635,3a.253.253,0,0,0,.016.2.313.313,0,0,0,.2.126,1.091,1.091,0,0,0,1.048-.416,2.528,2.528,0,0,0,.583-1.786,2.716,2.716,0,0,0-1.881-2.5,3.758,3.758,0,0,0-3.418.75c-.113.094-.223.192-.328.294a3.378,3.378,0,0,0-1.124,3.048A2.844,2.844,0,0,0,20.41,19c1.647.525,4.013.589,5.26-.962a.351.351,0,0,1,.547.44A4.59,4.59,0,0,1,22.516,20.039Z" transform="translate(-11.581 -8.123)" fill="#fff"/>
  <path id="Shape-2" data-name="Shape" d="M24.8,21.471a1.615,1.615,0,0,1-1.025-.345,1.986,1.986,0,0,1-.5-2.115,3.217,3.217,0,0,1,.255-.613,2.879,2.879,0,0,1,1.206-1.252,1.66,1.66,0,0,1,1.954.315,2.628,2.628,0,0,1,.56.964.351.351,0,0,1-.662.236,1.959,1.959,0,0,0-.406-.715.951.951,0,0,0-1.136-.17,2.2,2.2,0,0,0-.9.96,2.515,2.515,0,0,0-.2.476,1.308,1.308,0,0,0,.27,1.366,1.256,1.256,0,0,0,1.5-.146,3.916,3.916,0,0,0,.742-.9.351.351,0,1,1,.6.37,4.61,4.61,0,0,1-.879,1.063A2.157,2.157,0,0,1,24.8,21.471Z" transform="translate(-15.065 -11.378)" fill="#fff"/>
  <path id="Shape-3" data-name="Shape" d="M19.95,34.326H1.05A1.05,1.05,0,0,1,0,33.278V20.349a.35.35,0,0,1,.574-.269l8.588,7.126a2.1,2.1,0,0,0,2.677,0l8.587-7.125a.35.35,0,0,1,.574.269V33.278a1.05,1.05,0,0,1-1.05,1.048ZM.7,21.094V33.278a.35.35,0,0,0,.35.349h18.9a.35.35,0,0,0,.35-.349V21.094l-8.014,6.65a2.807,2.807,0,0,1-3.571,0Z" transform="translate(0 -13.326)" fill="#fff"/>
  <path id="Shape-4" data-name="Shape" d="M.352,16.567a.351.351,0,0,1-.2-.638l3.16-2.24a.351.351,0,0,1,.406.573L.554,16.5a.349.349,0,0,1-.2.065Z" transform="translate(0 -9.208)" fill="#fff"/>
  <path id="Shape-5" data-name="Shape" d="M52.517,16.567a.349.349,0,0,1-.2-.065l-3.16-2.24a.351.351,0,0,1,.406-.573l3.16,2.24a.351.351,0,0,1-.2.638Z" transform="translate(-31.868 -9.208)" fill="#fff"/>
  <path id="Shape-6" data-name="Shape" d="M26.6,3.455a.35.35,0,0,1-.2-.065L24.719,2.2a2.11,2.11,0,0,0-2.7-.016l-1.7,1.207a.351.351,0,0,1-.406-.573l1.679-1.19a2.8,2.8,0,0,1,3.56.016L26.8,2.818a.351.351,0,0,1-.2.638Z" transform="translate(-12.856 -0.996)" fill="#fff"/>
  <path id="Shape-7" data-name="Shape" d="M1,46.855a.351.351,0,0,1-.225-.621l8.013-6.658a.351.351,0,1,1,.449.54L1.225,46.774A.35.35,0,0,1,1,46.855Z" transform="translate(-0.421 -26.045)" fill="#fff"/>
  <path id="Shape-8" data-name="Shape" d="M42.888,46.856a.349.349,0,0,1-.224-.081l-8.013-6.658a.351.351,0,1,1,.449-.54l8.013,6.658a.351.351,0,0,1-.225.621Z" transform="translate(-22.468 -26.045)" fill="#fff"/>
  <path id="Shape-9" data-name="Shape" d="M23.33,14.245a.35.35,0,0,1-.35-.351V6.7c0,.007-.015,0-.038,0H9.737a.056.056,0,0,0-.042.015l0,7.177a.35.35,0,1,1-.7,0V6.7A.721.721,0,0,1,9.737,6h13.2a.721.721,0,0,1,.737.7v7.192A.35.35,0,0,1,23.33,14.245Z" transform="translate(-5.84 -4.242)" fill="#fff"/>
</svg>
