<svg xmlns="http://www.w3.org/2000/svg" width="19.293" height="19.292" viewBox="0 0 19.293 19.292">
  <path id="safari" d="M16.467,2.825A9.646,9.646,0,0,0,2.825,16.467,9.646,9.646,0,0,0,16.467,2.825Zm.391,3.052-1.291.529L16.138,7.8l1.293-.53a8.085,8.085,0,0,1,.319,1.622h-1.4V10.4h1.4a8.081,8.081,0,0,1-.35,1.722l-1.286-.546-.589,1.387,1.284.546a8.17,8.17,0,0,1-.9,1.333l-.985-.985-1.066,1.066.985.985a8.169,8.169,0,0,1-1.426.951l-.529-1.291-1.395.571.53,1.293a8.085,8.085,0,0,1-1.622.319v-1.4H8.893v1.4a8.081,8.081,0,0,1-1.722-.35l.546-1.286L6.33,15.525l-.546,1.284a8.172,8.172,0,0,1-1.306-.88l6.436-4.414a.916.916,0,0,0,.293-.274l4.712-6.776A8.17,8.17,0,0,1,16.858,5.877Zm-13.7,5.615-1.293.53A8.085,8.085,0,0,1,1.542,10.4h1.4V8.893h-1.4a8.081,8.081,0,0,1,.35-1.722l1.286.546L3.768,6.33,2.484,5.784a8.17,8.17,0,0,1,.9-1.333l.985.985L5.436,4.371l-.985-.985a8.169,8.169,0,0,1,1.426-.951l.529,1.291L7.8,3.154l-.53-1.293a8.085,8.085,0,0,1,1.622-.319v1.4H10.4v-1.4a8.081,8.081,0,0,1,1.722.35l-.546,1.286,1.387.589.546-1.284a8.161,8.161,0,0,1,1.128.737L8.049,8.094l-.159.16L3.214,14.627a8.162,8.162,0,0,1-.779-1.211l1.291-.529Zm9.438-4.884-2.563,3.686L6.472,12.733l2.565-3.5Z" fill="#fff"/>
</svg>
