<svg xmlns="http://www.w3.org/2000/svg" viewBox="0 0 408.48 108"><title>bimimi</title><g id="Layer_2" data-name="Layer 2"><g id="Layer_1-2" data-name="Layer 1"><path d="M110.89,49.43c-1.12-2.18-2.42-4.28-3.71-6.38a18.62,18.62,0,0,1-3.13-8.2c-.23-2.79-.51-5.56-.78-8.34a10.56,10.56,0,0,0-6.17-8.89,50.41,50.41,0,0,0-5.66-2.42A21.3,21.3,0,0,1,81.66,8a53.53,53.53,0,0,0-5-5.43A8,8,0,0,0,70.12.25a43.88,43.88,0,0,0-7.5,1.29A23.52,23.52,0,0,1,49,1.49c-2.27-.67-4.64-1-7-1.49a10,10,0,0,0-7.4,3,76.25,76.25,0,0,0-5.09,5.69,18.77,18.77,0,0,1-8,6c-2.29.89-4.57,1.84-6.79,2.92A10.07,10.07,0,0,0,8.93,24.8c-.32,1.52-.45,3.08-.62,4.63-.26,2.28-.37,4.59-.73,6.85-.52,3.34-2.29,6.18-4.25,8.81C-1.13,51.13-1.1,57,3.37,63A22.6,22.6,0,0,1,8.16,76.47c0,1,.13,2,.17,3,.21,5.62,2.6,9.75,8,11.82,1.22.47,2.41,1.05,3.66,1.47a21.51,21.51,0,0,1,10.22,7.4,49.73,49.73,0,0,0,4.45,5,9.82,9.82,0,0,0,9.3,2.69c2-.4,4-.84,6-1.4a21.74,21.74,0,0,1,12.15.06c1.81.53,3.67.87,5.51,1.29a10.08,10.08,0,0,0,9.91-3,48.2,48.2,0,0,0,4.07-4.62,21.88,21.88,0,0,1,10.46-7.5A44.76,44.76,0,0,0,97.91,90a9.8,9.8,0,0,0,5.24-7.63,55.42,55.42,0,0,0,.56-5.88,21.94,21.94,0,0,1,3.57-11.62,68.77,68.77,0,0,0,3.6-6.16A9.64,9.64,0,0,0,110.89,49.43ZM78.13,72a20.15,20.15,0,0,1-9.63,9.2c-7.74,3.85-15.67,3.94-23.65.91a14.37,14.37,0,0,1-9.28-15.68C36.3,60.71,42,55.88,47.2,55.31a2.43,2.43,0,0,1-1.75,2.76,24.21,24.21,0,0,0-2.74,1.12,10,10,0,0,0-5.22,12.64,13.67,13.67,0,0,0,7.67,8.57c6.66,2.78,13.44,3.06,20-.2C71.63,77,75.33,70.77,74,62.32a9.94,9.94,0,0,0-4.32-6.65c-1.65-1.17-3.32-2-5.49-1a11.14,11.14,0,0,1-4.09.71c-1.36,0-2.83,0-3.86-1.83a9.19,9.19,0,0,1,2.43-1.28,26.9,26.9,0,0,1,5.14-.44,4.92,4.92,0,0,0,3.39-1.15,15.47,15.47,0,0,0,6.06-12.64c0-4.49-2.48-7.54-7-8.61-7.72-1.81-14.11.43-19.09,6.6A29.35,29.35,0,0,0,42,47.1a5.3,5.3,0,0,1-.89,2,4.59,4.59,0,0,1,0-1c1.19-7.29,4.28-13.48,10.67-17.55,6.55-4.17,13.61-4.6,20.79-1.92,5.07,1.9,7.29,6.37,6.21,11.73a16.87,16.87,0,0,1-6.11,10.12l-2.43,1.93a6.72,6.72,0,0,0,1.14.73C80.59,56.4,81.21,65.62,78.13,72ZM47.59,74.85c.42-5.24.74-10.49,1.49-15.68,1.11-7.71,2.54-15.36,3.83-23q.06-.36.15-.72c.95-3.68,2.31-4.46,6.22-3.6-1.39,5-3.05,9.71-4,14.59-1.57,8-2.67,16-4,24-.34,2-.66,4-1.07,6.06-.25,1.22-.7,2.38-2.32,2.64C47.09,77.74,47.49,76.24,47.59,74.85Z" style="fill:#fff"/><path d="M194.09,53.81c-4.05-2.66-9.59-1.5-12.38-5.92,3.19-2.92,6.71-5.52,9.43-8.78,3.84-4.62,2.92-9.79-2.43-12.57a33.5,33.5,0,0,0-11.81-3.43c-10.53-1.09-20.59,1.45-30,5.89a79.34,79.34,0,0,0-14.68,9.25c-2.36,1.83-4.09,4.84-5.35,7.65-2,4.55-.89,8.74,2.41,11.29A8.81,8.81,0,0,0,140.79,57c3.87-3.31,7.06-7.42,10.43-11.28a11.85,11.85,0,0,0,1.44-3.23c-3.52,3-6.15,6.71-9.41,9.69a20.74,20.74,0,0,1-8.09,4.51c-3.42,1-4.92-.67-4.95-4.26,0-5.41,2.82-9.49,6.36-13.14,4.59-4.76,10.28-7.84,16.32-10.39a53.8,53.8,0,0,1,26.9-3.83c3.18.33,6.43,1.18,7.85,4.51s-.18,6.24-2.3,8.7c-4.32,5-8.94,9.15-16.46,8.7-3.28-.2-6.73,1.48-10,2.62a3.11,3.11,0,0,0-1.51,2.68c.18.77,1.6,1.53,2.6,1.73a8.66,8.66,0,0,0,4-.16,89,89,0,0,0,10.94-3.44c2.76-1.16,5-1.28,7.78,1.26-1.56.44-2.66.79-3.78,1.06a79.47,79.47,0,0,0-28,12.71,45.71,45.71,0,0,0-7.74,7c-3.27,3.75-2.75,7.6,1.58,10a20.9,20.9,0,0,0,8.95,2.59c11.79.49,21.67-4.58,30.48-11.84,5.85-4.82,9.73-10.64,5.66-18.75Zm-33.94-2.36c3.17-2.61,5.63-3.32,10.72-3.07C166.73,51.07,164.37,51.75,160.15,51.45Zm24.3,12.73c-7.76,11.21-18.48,17.49-32.1,18.61-2.53.21-5.27,0-6.63-2.53-1.53-2.8-.63-5.7,1.4-7.85a59.6,59.6,0,0,1,8.85-8c7.33-5.11,15.66-8,24.33-10a35.39,35.39,0,0,1,5.21-.4A10,10,0,0,1,184.45,64.18Z" style="fill:#fff"/><path d="M328.91,33.76c-.92-.71-3.19-.45-4.42.21a15.7,15.7,0,0,0-4.42,4c-4.7,5.74-8.59,12.12-9.93,19.38-1.2,6.48-5.29,10-10.14,13.34a15.19,15.19,0,0,1-3.47,1.14c2.17-7.43,6.56-12.14,12.78-15.75-2.78-2.28-5.29-2.4-7.57-.53s-3.85,4.12-5.94,6q-5,4.45-10.22,8.57c-.71.54-2,.32-3,.46l-.78-.91c1.46-2.5,2.86-5,4.41-7.49.95-1.52,1.87-3.18.16-4.39a5,5,0,0,0-4-.33,86.24,86.24,0,0,0-8,4.14c1.41-5.83,1.41-5.83-2.65-8-.66,1.5-1.33,3-2,4.48A23,23,0,0,1,258.17,70c-1.66.79-3.59,1.12-4.26-.84a7.78,7.78,0,0,1,.44-5c.43-1.07,2-1.62,3-2.54a30.64,30.64,0,0,0,3.75-4,2.89,2.89,0,0,0-.72-4.39c-1.06-.66-3-1.07-4-.52-5,2.94-8.19,7.32-8.35,13.32-.14,5,3.36,7.71,8.22,6.37a57.86,57.86,0,0,0,6-2.35c.57,1.38,1.15,2.79,2.17,5.22a35.88,35.88,0,0,1,16.47-15.38c-1.11,2.63-1.92,4.23-2.48,5.92a5.45,5.45,0,0,0,1.7,6.26c2,1.71,4,1.15,6,0,2.1-1.26,4.11-2.67,6.16-4,1.43,6.54,3.71,7.48,9.18,3.64,2.5-1.75,4.79-3.8,7.32-5.83,1.81,8.09,3.46,10.13,8.16,10.28-.24-.47-.42-.92-.68-1.33-3.88-6.29-3.27-13.19,1.39-18.82,3.61-4.36,7-8.89,10.4-13.42a10.43,10.43,0,0,0,2.2-4.41C330.36,36.69,329.91,34.53,328.91,33.76ZM258,56.18l1.14,1-3.81,4.13-.81-.66Zm58.86-2.4c2.2-7.65,6.3-13.83,10.72-16.18C327.24,41.64,323.16,47.79,316.88,53.78Z" style="fill:#fff"/><path d="M407.94,67.66c-1.32.71-2.6,1.5-3.95,2.13-1.7.78-3.54,1.55-4.8-.64s-1.08-4.06,1.08-5.69a48.54,48.54,0,0,0,5.28-4.55c1.68-1.69,2.35-3.63.37-5.68a3.37,3.37,0,0,0-5.29.09c-2.35,2.51-5,5.11-6.26,8.19-2.48,6.14-7.68,8.49-13,10.75-2.67,1.14-4-.17-4-3.2C377.34,64,382.6,57.91,388,57l-.91,4.38c2.55-2.5,4.11-4.26,2.24-6.73-1.54-2-3.66-2.13-5.82-.94a11.92,11.92,0,0,0-3.33,2.15c-2.07,2.35-4,4.85-5.83,7.39-2.87,4-6.34,6.85-11.7,7.65,0-4.09,2.69-6.2,4-8.95.55-1.16.89-3.15.27-3.94s-2.78-1.11-3.86-.66c-3,1.27-5.81,3-8.7,4.59a24.62,24.62,0,0,0,1.13-3.67c.37-2.42-.5-4.11-3.34-4.72-3,8-7.29,14.45-16.17,16.46-.26-.92-.5-1.29-.4-1.52a23.28,23.28,0,0,1,1.33-2.64c1.85-3.13,1.86-3.13-1.85-5.61-5.19,3.1-8.33,9-14.52,11.07,1.11-6,5-9.82,9.88-12.78,2.56-1.56,5.36-2.92,8.07,1.16-.67-5.06-3.31-7.19-7-6.59-5.48.9-14,9.05-15.39,14.57A5,5,0,0,0,318,73.34c2,1.49,3.76.7,5.4-.68,2.11-1.78,4.2-3.58,6.35-5.41,3.28,5.85,5.28,6.36,10.87,3.1.82-.48,1.71-.86,2.57-1.29-.18,1.93-.39,3.88,2.39,5.19,3.37-6.34,8.39-10.8,15.49-14.14-1,2.79-2.28,4.74-2.34,6.73a7.18,7.18,0,0,0,2.06,5.1c1,.88,3.45.89,4.91.34,2.25-.84,4.2-2.48,6.29-3.78,3.27,7,6.35,7.93,13.21,3.94,2.57-1.5,5-3.29,7.43-4.94,4,6,7.6,6.75,13.65,2.71a20.39,20.39,0,0,0,2.21-2Z" style="fill:#fff"/><path d="M263.54,44.31c0,.29,0,.57,0,.86-2.15,0-4.3,0-6.45,0a4.12,4.12,0,0,0-4.14,2.13C249.53,53.18,246,59,242.62,64.94a18.63,18.63,0,0,0-1.72,4.68c-.94,3.76-1.55,7.51,2.66,10.14a5,5,0,0,1-5.47-4.6,20.53,20.53,0,0,1,.63-8.77c1.65-4.86,4.08-9.46,6.21-14.15a13.4,13.4,0,0,0,1.56-5.11c-1.39.64-3.32.9-4.08,2-4.87,7-9.65,14-11.37,22.57-.65,3.27-.14,5.91,3.15,7.84-3.85-.29-5.64-2-6-5.75-.15-1.64.27-3.32.21-5,0-.57-.67-1.13-1-1.69-.12-.13-.23-.27-.35-.41,1.68-2.62,3.5-5.17,5-7.88,2-3.6,3.77-7.33,5.69-11.09l-4.89-.88c2.28-3.83,7.13-1.53,8.62-5.41,1.11-2.9,2.72-5.62,4.12-8.45,4.42,3.18,4.52,3.82,1.64,9.49,2.78.67,2.81.68,4.88-3.3,1-2,2-4.09,3-6.18,4.4,3.25,4.49,3.83,1.32,10.2Z" style="fill:#fff"/><path d="M224.72,64.19c2.82-4.91,2.86-9,.19-11.32-2.9-2.54-6.19-2-11,1.79l.61.69,1.52-.31-2.79,2.87c.11-.54.21-1.08.32-1.63l-.71-.63q-1.62,3-3.23,5.93c-.92,1.68-1.82,3.37-2.72,5l.53.6a11,11,0,0,1,1.7,1.87c2.12,3.73,4.55,4.21,8,2.65,2-.92,4.11-1.77,6.17-2.64l-.22-.27c-3.73-1.36-4.63,4.86-.63-1.41C223.2,66.33,224.06,65.32,224.72,64.19ZM215,71.12l-3.28-1.21c.15-.36.29-.72.44-1.09l3.19,1.42C215.22,70.53,215.11,70.83,215,71.12Zm4.41-3.64c-2.48,2.45-4.44.68-6.64-.78,1.42-4.48,5.5-6.24,8.94-9.56L218.32,54c4.15-1.14,5.85-.08,5.64,3.73A16.18,16.18,0,0,1,219.4,67.48Z" style="fill:#fff"/><path d="M174.76,29.4c-10.5,9.32-20,18.75-24.18,33.45-1-1.63-2-2.51-2.08-3.43a8.73,8.73,0,0,1,1-3.8,104.29,104.29,0,0,1,18.72-27.43,27.35,27.35,0,0,1,3.14-2.42Z" style="fill:#fff"/><path d="M207.47,67.23c-2.39,1.74-4.7,3.62-7.22,5.15-1.91,1.16-4.1,1.49-6-.31s-1.78-3.95-.68-5.95c2.46-4.47,5.13-8.83,7.67-13.15,4.42,1.72,4.79,2.5,2.77,5.6-1.62,2.5-3.47,4.86-5.06,7.38a35.87,35.87,0,0,0-2,4.59c4.78.79,6.91-2.71,10-3.91Z" style="fill:#fff"/><path d="M212.33,43.38c-.39,3-3.48,2.83-5.4,4.08l-1-1c1.06-2.34,2.12-4.68,3.77-8.29C211,40.57,212.5,42.09,212.33,43.38Z" style="fill:#fff"/><path d="M227.35,67.11l-4,2-.22-.27L227,66.7C227.12,66.84,227.23,67,227.35,67.11Z" style="fill:#fff"/><path d="M214.55,55.35l-1,.93-.71-.63,1.05-1Z" style="fill:#fff"/><path d="M47.21,55.31a2.44,2.44,0,0,1-1.76,2.76,24.21,24.21,0,0,0-2.74,1.12,10,10,0,0,0-5.22,12.64,13.65,13.65,0,0,0,7.67,8.57c6.66,2.78,13.44,3.06,20-.2C71.63,77,75.33,70.77,74,62.32a9.94,9.94,0,0,0-4.32-6.65c-1.65-1.17-3.32-2-5.48-1a11.23,11.23,0,0,1-4.1.71c-1.37,0-2.83,0-3.86-1.83a8.91,8.91,0,0,1,2.43-1.28,26.83,26.83,0,0,1,5.14-.44,5,5,0,0,0,3.39-1.15A15.49,15.49,0,0,0,73.28,38c0-4.48-2.48-7.53-7-8.6-7.71-1.81-14.1.43-19.08,6.6A29.35,29.35,0,0,0,42,47.1a5.3,5.3,0,0,1-.89,2,4.59,4.59,0,0,1,0-1c1.19-7.29,4.28-13.49,10.67-17.55,6.55-4.17,13.62-4.6,20.79-1.92,5.07,1.91,7.29,6.37,6.21,11.73a16.82,16.82,0,0,1-6.11,10.12l-2.43,1.93a7.14,7.14,0,0,0,1.14.73C81.47,58,81.21,65.62,78.14,72a20.21,20.21,0,0,1-9.64,9.2c-7.73,3.85-15.67,3.94-23.65.91a14.37,14.37,0,0,1-9.28-15.68C36.3,60.71,42,55.88,47.21,55.31Z" style="fill:none"/><path d="M59.29,31.81c-1.4,5-3.06,9.71-4,14.59-1.56,8-2.67,16-4,24-.33,2-.65,4-1.06,6.06-.25,1.22-.7,2.38-2.32,2.64-.82-1.37-.42-2.86-.31-4.26.41-5.24.74-10.49,1.48-15.68,1.1-7.71,2.54-15.36,3.83-23q.06-.36.15-.72C54,31.73,55.37,31,59.29,31.81Z" style="fill:none"/><path d="M160.15,51.45c3.17-2.62,5.63-3.32,10.72-3.07C166.73,51.07,164.37,51.75,160.15,51.45Z" style="fill:#fff"/><path d="M327.6,37.6c-.37,4-4.44,10.19-10.73,16.18C319.08,46.13,323.17,40,327.6,37.6Z" style="fill:#fff"/><path d="M259.16,57.18q-1.91,2.07-3.82,4.13l-.8-.66L258,56.18Z" style="fill:#fff"/><polygon points="292.24 68.01 292.38 67.82 292.18 67.95 292.24 68.01" style="fill:#fff"/><polygon points="262.25 70.02 262.45 69.71 262.19 69.95 262.25 70.02" style="fill:#fff"/><path d="M343.25,69l.13-.33-.19.27Z" style="fill:#fff"/><path d="M354.24,61.94l.05.06Z" style="fill:#fff"/><path d="M218.32,54h0l-.05-.06Z" style="fill:#fff"/><path d="M215,71.12l-3.28-1.21.43-1.09,3.2,1.41Z" style="fill:#fff"/><path d="M213.6,56.28l1-.93,1.68-.34-.06-.07-2.94,3,0,0Z" style="fill:#fff"/><path d="M216.23,55l2.08-1-.05-.06-2.09,1Z" style="fill:#fff"/><polygon points="213.24 57.95 213.1 58.08 213.26 57.97 213.24 57.95" style="fill:#fff"/></g></g></svg>