<svg xmlns="http://www.w3.org/2000/svg" viewBox="0 0 287.26 62.24"><title>biot</title><g id="Layer_2" data-name="Layer 2"><g id="Layer_1-2" data-name="Layer 1"><g id="Layer_2-2" data-name="Layer 2"><g id="Layer_1-2-2" data-name="Layer 1-2"><path d="M68.27,31c-4-2.66-9.59-1.5-12.38-5.92,3.19-2.92,6.71-5.52,9.43-8.78,3.84-4.62,2.92-9.79-2.43-12.57A33.48,33.48,0,0,0,51.08.25C40.55-.84,30.49,1.7,21.05,6.14A79.4,79.4,0,0,0,6.37,15.39C4,17.22,2.28,20.23,1,23c-2,4.55-.89,8.74,2.41,11.29A8.81,8.81,0,0,0,15,34.18c3.84-3.31,7-7.42,10.4-11.28a12,12,0,0,0,1.44-3.23c-3.52,3-6.15,6.71-9.41,9.69a20.61,20.61,0,0,1-8.09,4.51c-3.42,1-4.92-.67-4.95-4.26,0-5.41,2.82-9.49,6.36-13.14C15.34,11.71,21,8.63,27.07,6.08A53.83,53.83,0,0,1,54,2.25c3.18.33,6.43,1.18,7.85,4.51s-.18,6.24-2.3,8.7c-4.32,5-8.94,9.15-16.46,8.7-3.28-.2-6.73,1.48-10,2.62a3.1,3.1,0,0,0-1.51,2.68c.18.77,1.6,1.53,2.6,1.73a8.59,8.59,0,0,0,4-.16,89.5,89.5,0,0,0,10.94-3.44c2.76-1.16,5-1.28,7.78,1.26-1.56.44-2.66.79-3.78,1.06A79.48,79.48,0,0,0,25,42.62a45.54,45.54,0,0,0-7.74,7c-3.27,3.75-2.75,7.6,1.58,10a20.89,20.89,0,0,0,9,2.59c11.79.49,21.67-4.58,30.48-11.84C64.15,45.59,68,39.77,64,31.66ZM34.33,28.59C37.5,26,40,25.27,45.05,25.52,40.91,28.21,38.55,28.89,34.33,28.59Zm24.3,12.73c-7.76,11.21-18.48,17.49-32.1,18.61-2.53.21-5.27,0-6.63-2.53-1.53-2.8-.63-5.7,1.4-7.85a60,60,0,0,1,8.85-8c7.33-5.11,15.66-8,24.33-10a36.23,36.23,0,0,1,5.21-.4A10,10,0,0,1,58.63,41.32Z" style="fill:#329afe"/><path d="M203.09,10.9c-.92-.71-3.19-.45-4.42.21a15.65,15.65,0,0,0-4.42,4c-4.7,5.74-8.59,12.12-9.93,19.38-1.2,6.48-5.29,10-10.14,13.34A15.18,15.18,0,0,1,170.71,49c2.17-7.43,6.56-12.14,12.78-15.75-2.78-2.28-5.29-2.4-7.57-.53s-3.85,4.12-5.94,6q-5,4.45-10.22,8.57c-.71.54-2,.32-3,.46l-.78-.91c1.46-2.5,2.86-5,4.41-7.49,1-1.52,1.87-3.18.16-4.39a5,5,0,0,0-4-.33,85.21,85.21,0,0,0-8,4.14c1.41-5.83,1.41-5.83-2.65-8-.66,1.5-1.33,3-2,4.48a23,23,0,0,1-11.54,11.9c-1.66.79-3.59,1.12-4.26-.84a7.74,7.74,0,0,1,.44-5c.43-1.07,2-1.62,3-2.54a31.55,31.55,0,0,0,3.75-4,2.9,2.9,0,0,0-.29-4.08,3.36,3.36,0,0,0-.43-.31c-1.06-.66-3-1.07-4-.52-5,2.94-8.19,7.32-8.35,13.32-.14,5.05,3.36,7.71,8.22,6.37a58.34,58.34,0,0,0,5.95-2.35c.57,1.38,1.15,2.79,2.17,5.22A35.9,35.9,0,0,1,155.05,37c-1.11,2.63-1.92,4.23-2.48,5.92a5.45,5.45,0,0,0,1.7,6.26c2,1.71,4,1.15,6,0s4.11-2.67,6.16-4c1.43,6.54,3.71,7.48,9.18,3.64,2.5-1.75,4.79-3.8,7.32-5.83,1.81,8.09,3.46,10.13,8.16,10.28-.24-.47-.42-.92-.68-1.33-3.88-6.29-3.27-13.19,1.39-18.82,3.61-4.36,7-8.89,10.4-13.42a10.43,10.43,0,0,0,2.2-4.41C204.54,13.83,204.09,11.67,203.09,10.9ZM132.2,33.32l1.14,1-3.81,4.13-.81-.66Zm58.86-2.4c2.2-7.65,6.3-13.83,10.72-16.18C201.42,18.78,197.34,24.93,191.06,30.92Z" style="fill:#329afe"/><path d="M282.12,44.8c-1.32.71-2.6,1.5-3.95,2.13-1.7.78-3.54,1.55-4.8-.64s-1.08-4.06,1.08-5.69a49.66,49.66,0,0,0,5.28-4.55c1.68-1.69,2.35-3.63.37-5.68a3.38,3.38,0,0,0-4.74-.48,3.29,3.29,0,0,0-.55.57c-2.35,2.51-5,5.11-6.26,8.19-2.48,6.14-7.68,8.49-13,10.75-2.67,1.14-4-.17-4-3.2,0-5.07,5.23-11.15,10.59-12.11l-.91,4.38c2.55-2.5,4.11-4.26,2.24-6.73-1.54-2-3.66-2.13-5.82-.94a12,12,0,0,0-3.33,2.2c-2.07,2.35-4,4.85-5.83,7.39-2.87,4-6.34,6.85-11.7,7.65,0-4.09,2.69-6.2,4-9,.55-1.16.89-3.15.27-3.94s-2.78-1.11-3.86-.66A96.52,96.52,0,0,0,228.5,39a24.71,24.71,0,0,0,1.13-3.67c.37-2.42-.5-4.11-3.34-4.72-3,8-7.29,14.45-16.17,16.46-.26-.92-.5-1.29-.4-1.52a21.74,21.74,0,0,1,1.33-2.64c1.85-3.13,1.86-3.13-1.85-5.61-5.19,3.1-8.33,9-14.52,11.07,1.11-6,5-9.82,9.88-12.78,2.56-1.56,5.36-2.92,8.07,1.16-.67-5.06-3.31-7.19-7-6.59-5.48.9-14,9.05-15.39,14.57a5,5,0,0,0,1.94,5.72c2,1.49,3.76.7,5.4-.68,2.11-1.78,4.2-3.58,6.35-5.41,3.28,5.85,5.28,6.36,10.87,3.1.82-.48,1.71-.86,2.57-1.29-.18,1.93-.39,3.88,2.39,5.19,3.37-6.34,8.39-10.8,15.49-14.14C234.21,40,233,42,232.9,44A7.15,7.15,0,0,0,235,49.1c1,.88,3.45.89,4.91.34,2.25-.84,4.2-2.48,6.29-3.78,3.27,7,6.35,7.93,13.21,3.94,2.57-1.5,5-3.29,7.43-4.94,4,6,7.6,6.75,13.65,2.71a20.89,20.89,0,0,0,2.21-2Zm-7.74-6.74.12-.11c.06-.24.13-.47.21-.7a3.59,3.59,0,0,1,.21-.5c.08-.16.08-.2.13-.3a6.15,6.15,0,0,1,.37-.66A7.7,7.7,0,0,1,277,34a9.91,9.91,0,0,1,1.35-1l.87.84c-1.57,1.37-3.15,2.73-4.72,4.08h0a1.09,1.09,0,0,0-.05.17l-.25.23Z" style="fill:#329afe"/><path d="M137.72,21.45v.86c-2.15,0-4.3.05-6.45,0a4.13,4.13,0,0,0-4.14,2.13c-3.41,5.9-7,11.73-10.32,17.66a18.67,18.67,0,0,0-1.72,4.68c-.94,3.76-1.55,7.51,2.66,10.14a5,5,0,0,1-5.46-4.49.41.41,0,0,1,0-.11,20.49,20.49,0,0,1,.63-8.77c1.65-4.86,4.08-9.46,6.21-14.15a13.33,13.33,0,0,0,1.56-5.11c-1.39.64-3.32.9-4.08,2-4.87,7-9.65,14-11.37,22.57-.65,3.27-.14,5.91,3.15,7.84-3.85-.29-5.64-2-6-5.75-.15-1.64.27-3.32.21-5,0-.57-.67-1.13-1-1.69-.12-.13-.23-.27-.35-.41,1.68-2.62,3.5-5.17,5-7.88,2-3.6,3.77-7.33,5.69-11.09L107,24c2.28-3.83,7.13-1.53,8.62-5.41,1.11-2.9,2.72-5.62,4.12-8.45,4.42,3.18,4.52,3.82,1.64,9.49,2.78.67,2.81.68,4.88-3.3,1-2,2-4.09,3-6.18,4.4,3.25,4.49,3.83,1.32,10.2Z" style="fill:#329afe"/><path d="M98.9,41.33c2.81-4.71,2.86-9,.19-11.32-2.9-2.54-6.19-2-11,1.79l.61.69,1.52-.31-2.79,2.87c.11-.54.21-1.08.32-1.63L87,32.79q-1.62,3-3.23,5.93c-.92,1.68-1.82,3.37-2.72,5.05l.53.6a12.07,12.07,0,0,1,1.7,1.87c2.12,3.73,4.24,4.42,8,2.65,2-1,4.11-1.77,6.17-2.64L97.31,46c-.23-.48-.78-1.14-.63-1.41C97.31,43.43,98.23,42.45,98.9,41.33Zm-9.73,6.93-3.28-1.21c.15-.36.29-.72.44-1.09l3.19,1.42C89.4,47.67,89.29,48,89.17,48.26Zm4.41-3.64c-2.45,2.47-4.44.68-6.64-.78,1.42-4.48,5.5-6.24,8.94-9.56L92.5,31.17c4.15-1.14,5.85-.08,5.64,3.73A14.87,14.87,0,0,1,93.58,44.62Z" style="fill:#329afe"/><path d="M48.94,6.54c-10.5,9.32-20,18.75-24.18,33.45-1-1.63-2-2.51-2.08-3.43a8.74,8.74,0,0,1,1-3.8A104.49,104.49,0,0,1,42.41,5.33a26.47,26.47,0,0,1,3.14-2.42Z" style="fill:#329afe"/><path d="M81.65,44.37C79.26,46.11,77,48,74.43,49.52c-1.91,1.16-4.1,1.49-6-.31s-1.78-4-.68-6c2.46-4.47,5.13-8.83,7.67-13.15,4.42,1.72,4.79,2.5,2.77,5.6-1.62,2.5-3.47,4.86-5.06,7.38a35.21,35.21,0,0,0-2,4.59c4.78.79,6.91-2.71,10-3.91Z" style="fill:#329afe"/><path d="M86.51,20.52c-.39,3-3.48,2.83-5.4,4.08l-1-1c1.06-2.34,2.12-4.68,3.77-8.29C85.16,17.71,86.68,19.23,86.51,20.52Z" style="fill:#329afe"/><path d="M287.26,41.57l-4.6,3.82-.54-.59,4.32-4.16Z" style="fill:#329afe"/><path d="M101.53,44.25l-4,2L97.31,46l3.87-2.14Z" style="fill:#329afe"/><path d="M88.73,32.49l-1,.93L87,32.79l1-1Z" style="fill:#329afe"/><path d="M34.33,28.6C37.5,26,40,25.27,45.05,25.52,40.91,28.21,38.55,28.89,34.33,28.6Z" style="fill:#329afe"/><path d="M201.78,14.74c-.36,4-4.44,10.19-10.72,16.18C193.26,23.28,197.36,17.09,201.78,14.74Z" style="fill:#329afe"/><path d="M133.34,34.33l-3.81,4.13-.81-.66,3.48-4.48Z" style="fill:#329afe"/><polygon points="166.42 45.15 166.56 44.96 166.37 45.1 166.42 45.15" style="fill:#329afe"/><polygon points="136.44 47.16 136.63 46.85 136.37 47.09 136.44 47.16" style="fill:#329afe"/><path d="M274.45,38.13a7.89,7.89,0,0,1,3.9-5.1l.87.84-4.84,4.19Z" style="fill:#329afe"/><polygon points="274.38 38.06 274.2 38.36 274.45 38.13 274.38 38.06" style="fill:#329afe"/><path d="M217.44,46.17l.12-.33-.19.27Z" style="fill:#329afe"/><path d="M228.42,39.08l.06.06Z" style="fill:#329afe"/><path d="M92.5,31.17h0v0Z" style="fill:#329afe"/><path d="M89.17,48.26l-3.28-1.21.44-1,3.19,1.41Z" style="fill:#329afe"/><path d="M87.78,33.43l1-.94,1.68-.34-.06-.07-2.93,3h0Z" style="fill:#329afe"/><path d="M90.41,32.15l2.08-1v-.06l-2.09,1Z" style="fill:#329afe"/><polygon points="87.42 35.09 87.28 35.22 87.45 35.11 87.42 35.09" style="fill:#329afe"/></g></g></g></g></svg>